<?xml version="1.0" standalone="no"?>
<!DOCTYPE svg PUBLIC "-//W3C//DTD SVG 20010904//EN"
 "http://www.w3.org/TR/2001/REC-SVG-20010904/DTD/svg10.dtd">
<svg version="1.0" xmlns="http://www.w3.org/2000/svg"
 width="900.000000pt" height="900.000000pt" viewBox="0 0 900.000000 900.000000"
 preserveAspectRatio="xMidYMid meet">
<metadata>
Created by potrace 1.14, written by Peter Selinger 2001-2017
</metadata>
<g transform="translate(0.000000,900.000000) scale(0.100000,-0.100000)"
fill="#000000" stroke="none">
<path d="M4532 6608 l3 -153 36 -6 c20 -3 54 -19 75 -36 22 -17 77 -52 124
-78 47 -27 132 -76 190 -110 58 -34 131 -76 163 -94 33 -19 54 -37 51 -43 -4
-7 -2 -8 5 -4 6 4 61 -21 124 -58 63 -36 117 -66 122 -66 4 0 29 -13 54 -29
25 -16 57 -32 69 -36 22 -6 23 -5 13 14 -13 24 0 28 19 6 10 -12 10 -18 0 -29
-9 -12 -4 -19 32 -38 l43 -23 -30 -3 c-16 -2 -64 -2 -106 0 -67 3 -83 7 -120
34 -24 17 -80 49 -124 71 -44 22 -123 67 -175 100 -52 33 -151 92 -220 131
-69 39 -156 90 -195 114 -38 24 -100 59 -137 77 l-67 34 -296 -173 c-162 -95
-295 -175 -295 -179 0 -4 -13 -6 -29 -3 -22 3 -31 -1 -35 -15 -4 -10 -99 -71
-234 -147 -125 -71 -240 -139 -257 -152 -38 -27 -218 -124 -232 -124 -6 0 -13
15 -15 33 -3 17 -7 37 -9 44 -2 7 53 45 131 90 102 59 136 84 138 101 5 31 17
27 42 -14 24 -37 40 -41 20 -4 -6 12 -10 23 -8 24 56 37 57 37 70 16 15 -24
60 -27 78 -5 11 13 7 15 -24 15 -20 0 -36 4 -36 8 0 14 69 42 108 43 29 1 32
2 14 7 -35 10 -30 25 16 48 23 12 103 60 179 107 145 89 400 235 493 282 89
44 138 79 144 100 3 11 6 75 6 143 0 122 0 122 -24 122 -13 0 -29 -7 -37 -16
-7 -8 -34 -26 -59 -39 -26 -13 -60 -35 -76 -48 -16 -13 -57 -39 -91 -58 -69
-37 -58 -37 -170 12 l-51 22 -129 -76 c-70 -42 -144 -82 -163 -88 -19 -7 -42
-22 -52 -33 -10 -12 -17 -17 -18 -12 0 5 -12 -1 -26 -15 -25 -24 -26 -24 -40
-5 -14 19 -14 19 -14 -2 0 -16 -23 -37 -89 -81 -48 -32 -99 -62 -112 -66 -13
-4 -45 -23 -70 -41 -26 -19 -50 -34 -55 -34 -15 0 -182 -99 -209 -124 -15 -14
-36 -26 -46 -26 -30 0 -49 -11 -49 -30 0 -10 -7 -23 -15 -30 -11 -9 -13 -16
-5 -24 5 -5 10 -23 10 -39 0 -21 -6 -30 -22 -35 -23 -6 -23 -6 2 -12 23 -6 21
-8 -30 -37 -30 -18 -68 -40 -85 -50 -16 -10 -70 -41 -120 -69 -49 -28 -90 -57
-90 -64 0 -7 29 -29 65 -49 64 -35 65 -36 35 -42 -27 -6 -25 -7 13 -8 24 0 53
-6 65 -13 12 -6 38 -12 59 -14 31 -3 41 1 54 21 9 14 24 25 34 25 9 0 28 8 41
18 13 10 59 38 101 61 74 40 77 41 87 22 15 -27 15 -28 -16 -26 -16 1 -20 0
-11 -2 10 -2 24 -14 33 -26 14 -20 12 -22 -43 -54 -39 -22 -70 -32 -99 -33
-25 0 -43 -5 -43 -11 0 -7 10 -9 25 -6 33 6 27 0 -48 -43 -43 -25 -63 -43 -65
-59 -4 -26 -132 -23 988 -26 404 -1 1103 -6 1553 -10 737 -7 819 -6 830 8 7 9
33 19 60 22 38 6 47 4 47 -8 0 -12 17 -14 113 -10 61 2 117 6 123 8 7 2 11 31
10 78 0 49 4 80 13 91 12 14 5 16 -73 16 -47 0 -86 4 -86 8 0 10 45 32 65 32
8 0 19 9 24 19 9 17 0 25 -82 71 -179 103 -232 129 -256 130 -22 0 -23 2 -16
56 3 30 4 72 0 93 -6 36 -9 39 -47 45 -28 5 -42 12 -45 26 -3 11 -29 33 -58
50 -29 17 -58 37 -65 45 -7 8 -21 15 -32 15 -15 0 -18 5 -13 21 6 19 5 20 -15
9 -17 -9 -28 -7 -58 10 -20 12 -38 17 -40 12 -6 -18 -41 -1 -44 21 -2 12 -12
23 -23 26 -11 2 -24 10 -28 17 -4 8 -26 23 -48 34 -21 11 -39 25 -39 31 0 7
-14 10 -34 7 -19 -2 -34 0 -33 5 1 5 -20 24 -48 42 -27 19 -70 48 -94 65 -23
17 -44 30 -46 28 -1 -2 -7 -22 -12 -45 -9 -36 -8 -44 9 -60 19 -19 19 -20 -11
-15 -40 6 -49 42 -21 87 l21 33 -56 34 c-31 18 -86 52 -123 75 -66 41 -66 41
-92 23 -14 -10 -47 -28 -74 -41 -46 -21 -50 -22 -75 -6 -14 8 -69 39 -121 68
-52 28 -118 69 -146 90 -28 22 -56 39 -63 39 -8 0 -11 -40 -9 -152z m322 -97
c3 -5 -1 -12 -10 -15 -20 -8 -29 -1 -19 13 8 13 22 14 29 2z m196 -7 c0 -2 -9
-4 -21 -4 -11 0 -18 4 -14 10 5 8 35 3 35 -6z m-1461 -186 c1 -11 -11 -10 -28
1 -13 8 -13 12 -1 26 13 16 15 16 21 -2 4 -10 8 -21 8 -25z m596 22 c-7 -12
-42 -12 -70 0 -15 6 -8 9 28 9 30 1 46 -3 42 -9z m1045 -20 c0 -5 -4 -10 -9
-10 -6 0 -13 5 -16 10 -3 6 1 10 9 10 9 0 16 -4 16 -10z m-1690 -110 c21 -21
27 -50 10 -50 -5 0 -10 7 -10 16 0 12 -6 15 -24 10 -17 -4 -28 -1 -34 10 -12
22 -35 8 -27 -16 4 -12 0 -22 -11 -28 -23 -13 -8 -35 18 -26 12 4 24 1 28 -7
8 -12 40 -22 40 -12 0 2 -5 13 -10 23 -7 13 -7 21 2 26 6 4 14 2 16 -4 2 -7 9
-9 14 -5 8 4 9 -2 5 -18 -4 -13 -7 -27 -7 -31 0 -4 -21 -10 -46 -14 -39 -5
-49 -3 -70 17 -49 46 -16 129 53 129 20 0 41 -8 53 -20z m2000 0 c27 -27 27
-83 -2 -110 -50 -46 -128 -12 -128 57 0 44 30 73 75 73 22 0 43 -8 55 -20z
m130 -30 c0 -5 -5 -10 -11 -10 -5 0 -7 5 -4 10 3 6 8 10 11 10 2 0 4 -4 4 -10z
m70 -60 c0 -5 -7 -7 -15 -4 -8 4 -15 8 -15 10 0 2 7 4 15 4 8 0 15 -4 15 -10z
m118 -78 c-13 -15 -19 -7 -33 38 l-8 25 26 -25 c19 -19 23 -28 15 -38z m-2649
-19 c12 -9 13 -16 5 -29 -6 -10 -15 -19 -21 -21 -15 -5 -33 50 -26 77 6 21 6
21 16 4 6 -11 18 -24 26 -31z m310 5 c-5 -18 -9 -35 -9 -37 0 -3 -5 0 -10 5
-8 8 -7 19 1 37 17 38 29 34 18 -5z m671 22 c0 -5 -7 -7 -15 -4 -8 4 -15 8
-15 10 0 2 7 4 15 4 8 0 15 -4 15 -10z m-1160 -28 c0 -14 -11 -21 -26 -15 -21
8 -17 23 6 23 11 0 20 -4 20 -8z m1150 -2 c0 -5 -5 -10 -11 -10 -5 0 -7 5 -4
10 3 6 8 10 11 10 2 0 4 -4 4 -10z m-1025 -10 c3 -5 1 -10 -4 -10 -6 0 -11 5
-11 10 0 6 2 10 4 10 3 0 8 -4 11 -10z m-218 -22 c-3 -8 -6 -5 -6 6 -1 11 2
17 5 13 3 -3 4 -12 1 -19z m2883 -14 c0 -8 -4 -14 -10 -14 -5 0 -10 9 -10 21
0 11 5 17 10 14 6 -3 10 -13 10 -21z m-2820 -16 c0 -13 -4 -28 -8 -35 -8 -13
-62 -6 -62 9 0 5 8 7 18 4 13 -5 22 1 30 19 14 31 22 32 22 3z m40 -14 c0 -13
-4 -24 -10 -24 -5 0 -10 14 -10 31 0 17 4 28 10 24 6 -3 10 -17 10 -31z m117
-1 c27 5 29 0 6 -25 -20 -22 -33 -23 -33 -3 0 8 -11 17 -25 21 -25 6 -25 7 -8
26 17 19 18 19 27 -2 7 -16 16 -20 33 -17z m860 31 c-3 -3 -12 -4 -19 -1 -8 3
-5 6 6 6 11 1 17 -2 13 -5z m407 -10 c4 -10 1 -14 -6 -12 -15 5 -23 28 -10 28
5 0 13 -7 16 -16z m-869 -4 c3 -6 -4 -10 -17 -10 -18 0 -20 2 -8 10 19 12 18
12 25 0z m-321 -15 c-4 -8 -10 -12 -15 -9 -11 6 -2 24 11 24 5 0 7 -7 4 -15z
m116 -5 c0 -5 -7 -7 -15 -4 -8 4 -15 8 -15 10 0 2 7 4 15 4 8 0 15 -4 15 -10z
m103 3 c-7 -2 -21 -2 -30 0 -10 3 -4 5 12 5 17 0 24 -2 18 -5z m-364 -12 c10
-6 10 -10 1 -16 -7 -4 -19 0 -28 9 -14 13 -14 16 -2 16 8 0 21 -4 29 -9z
m2946 -21 c14 -6 -2 -9 -50 -9 -41 -1 -76 -6 -83 -13 -7 -7 -12 -8 -12 -2 0
22 27 34 75 33 27 0 59 -4 70 -9z m-2965 -10 c13 -8 13 -10 -2 -10 -9 0 -20 5
-23 10 -8 13 5 13 25 0z m265 0 c3 -5 1 -10 -4 -10 -6 0 -11 5 -11 10 0 6 2
10 4 10 3 0 8 -4 11 -10z m1785 6 c0 -3 -4 -8 -10 -11 -5 -3 -10 -1 -10 4 0 6
5 11 10 11 6 0 10 -2 10 -4z m-2118 -18 c-9 -9 -15 -9 -24 0 -9 9 -7 12 12 12
19 0 21 -3 12 -12z m210 -20 c-9 -9 -12 -7 -12 12 0 19 3 21 12 12 9 -9 9 -15
0 -24z m-199 -5 c-7 -2 -19 -2 -25 0 -7 3 -2 5 12 5 14 0 19 -2 13 -5z m1167
-23 c0 -5 -4 -12 -10 -15 -5 -3 -10 -4 -10 -1 0 2 -3 12 -6 20 -5 12 -2 15 10
10 9 -3 16 -10 16 -14z m1840 16 c0 -9 -39 -13 -51 -5 -10 6 -4 9 19 9 17 0
32 -2 32 -4z m-2910 -30 c0 -11 -19 -15 -25 -6 -3 5 1 10 9 10 9 0 16 -2 16
-4z m2591 -21 c45 -24 26 -35 -59 -35 -42 -1 -96 -5 -120 -9 -24 -5 -40 -5
-35 -1 4 5 19 10 33 12 l25 5 -25 10 c-24 10 -23 11 20 17 25 3 63 7 85 9 22
2 41 4 43 5 2 1 16 -5 33 -13z m149 -64 c-1 -13 -3 -12 -13 4 -11 19 -47 24
-47 6 0 -14 36 -41 71 -53 19 -6 57 -25 84 -41 28 -17 66 -34 85 -37 35 -8 35
-8 -10 -9 -26 0 -51 4 -58 11 -9 9 -15 9 -24 0 -7 -7 -35 -12 -63 -12 -38 0
-60 6 -90 27 -22 15 -79 48 -128 74 l-89 47 94 4 c60 3 103 10 123 21 29 15
31 15 48 -5 9 -11 17 -28 17 -37z m-1681 28 c-8 -5 -21 -9 -29 -9 -12 1 -11 4
4 15 10 8 23 12 29 8 5 -3 3 -9 -4 -14z m-369 -9 c0 -5 -5 -10 -11 -10 -5 0
-7 5 -4 10 3 6 8 10 11 10 2 0 4 -4 4 -10z m1519 -4 c-10 -8 -169 -13 -169 -5
0 5 39 9 87 9 47 0 84 -2 82 -4z m-559 -16 c0 -5 -4 -10 -10 -10 -5 0 -10 5
-10 10 0 6 5 10 10 10 6 0 10 -4 10 -10z m637 4 c-3 -3 -12 -4 -19 -1 -8 3 -5
6 6 6 11 1 17 -2 13 -5z m-50 -10 c-3 -3 -12 -4 -19 -1 -8 3 -5 6 6 6 11 1 17
-2 13 -5z m888 -4 c-3 -5 -14 -10 -23 -10 -15 0 -15 2 -2 10 20 13 33 13 25 0z
m-3360 -40 c-3 -5 -13 -10 -21 -10 -8 0 -14 5 -14 10 0 6 9 10 21 10 11 0 17
-4 14 -10z m1835 -19 c0 -5 -13 -14 -30 -20 -16 -5 -30 -6 -30 -1 0 7 23 18
58 29 1 1 2 -3 2 -8z m1560 -34 c0 -5 -4 -5 -10 -2 -5 3 -10 14 -10 23 0 15 2
15 10 2 5 -8 10 -19 10 -23z m-953 -3 c-3 -3 -12 -4 -19 -1 -8 3 -5 6 6 6 11
1 17 -2 13 -5z m761 -53 c12 -11 22 -22 22 -25 0 -3 -29 -6 -65 -6 -36 0 -65
2 -65 5 0 3 6 14 12 25 16 26 65 26 96 1z m-138 -11 c0 -17 -6 -20 -42 -19
-33 0 -38 2 -23 9 19 8 19 9 -2 9 -44 2 -23 21 22 21 38 0 45 -3 45 -20z
m-193 3 c-20 -2 -52 -2 -70 0 -17 2 0 4 38 4 39 0 53 -2 32 -4z m507 -4 c18
-9 33 -9 56 0 26 8 35 8 47 -4 9 -10 34 -15 69 -15 59 0 67 -9 29 -34 -14 -9
-27 -27 -31 -40 -5 -22 -7 -23 -32 -10 -15 8 -36 14 -47 13 -20 0 -20 0 0 -8
18 -7 17 -9 -11 -24 -17 -9 -36 -23 -43 -31 -23 -27 -94 -20 -154 14 -36 21
-46 30 -32 31 11 0 2 6 -20 12 -77 23 -88 46 -22 48 38 1 39 2 12 8 -25 6 -20
8 34 14 34 4 75 13 90 21 14 8 27 14 28 15 1 1 13 -4 27 -10z m-894 -29 c0 -5
-11 -10 -25 -10 -14 0 -25 5 -25 10 0 6 11 10 25 10 14 0 25 -4 25 -10z m-342
-7 c-16 -2 -40 -2 -55 0 -16 2 -3 4 27 4 30 0 43 -2 28 -4z m169 0 c-20 -2
-52 -2 -70 0 -17 2 0 4 38 4 39 0 53 -2 32 -4z m336 0 c-24 -2 -62 -2 -85 0
-24 2 -5 4 42 4 47 0 66 -2 43 -4z m427 -24 c0 -11 -5 -17 -10 -14 -6 4 -8 10
-5 15 3 5 -3 11 -12 13 -14 4 -13 5 5 6 16 1 22 -5 22 -20z m-540 -9 c0 -5 -5
-10 -11 -10 -5 0 -7 5 -4 10 3 6 8 10 11 10 2 0 4 -4 4 -10z m563 -27 c-13 -2
-33 -2 -45 0 -13 2 -3 4 22 4 25 0 35 -2 23 -4z m-120 -10 c-7 -2 -19 -2 -25
0 -7 3 -2 5 12 5 14 0 19 -2 13 -5z m-135 -10 c-10 -2 -26 -2 -35 0 -10 3 -2
5 17 5 19 0 27 -2 18 -5z m254 -10 c-10 -4 -10 -8 -1 -19 14 -17 -2 -19 -19
-2 -18 18 -14 28 11 27 12 0 16 -3 9 -6z m-912 -23 c0 -5 -5 -10 -11 -10 -5 0
-7 5 -4 10 3 6 8 10 11 10 2 0 4 -4 4 -10z m-1050 -24 c0 -3 -4 -8 -10 -11 -5
-3 -10 -1 -10 4 0 6 5 11 10 11 6 0 10 -2 10 -4z"/>
<path d="M5486 6194 c-4 -10 -13 -13 -25 -9 -25 8 -39 -15 -17 -27 11 -6 15
-16 11 -28 -8 -26 15 -37 31 -15 7 10 20 15 28 12 22 -9 32 14 13 28 -10 7
-14 20 -10 33 6 26 -21 32 -31 6z"/>
<path d="M5908 5633 c7 -3 16 -2 19 1 4 3 -2 6 -13 5 -11 0 -14 -3 -6 -6z"/>
<path d="M6220 5560 c0 -5 5 -10 11 -10 5 0 7 5 4 10 -3 6 -8 10 -11 10 -2 0
-4 -4 -4 -10z"/>
<path d="M6160 5530 c-12 -8 -8 -10 15 -11 17 -1 34 -1 39 0 4 1 13 -5 20 -14
10 -14 13 -14 34 0 12 9 22 20 22 26 0 12 -111 11 -130 -1z"/>
<path d="M6330 5530 l-35 -7 40 -1 c22 0 49 3 60 8 18 8 18 9 -5 8 -14 0 -41
-4 -60 -8z"/>
<path d="M6200 5470 c-12 -8 -9 -10 13 -10 15 0 27 5 27 10 0 13 -20 13 -40 0z"/>
<path d="M5030 6738 c24 -10 24 -10 5 -18 -16 -7 -14 -9 14 -9 26 -1 32 2 27
15 -3 9 -6 18 -6 20 0 2 -15 4 -32 3 -32 0 -33 0 -8 -11z"/>
<path d="M5143 6743 c15 -2 37 -2 50 0 12 2 0 4 -28 4 -27 0 -38 -2 -22 -4z"/>
<path d="M5210 6733 c-45 -15 -45 -15 -21 -24 21 -8 158 7 148 17 -6 7 -111
13 -127 7z"/>
<path d="M3560 6660 c-12 -8 -11 -10 8 -10 12 0 22 5 22 10 0 13 -11 13 -30 0z"/>
<path d="M5430 6528 c0 -10 92 -9 145 1 31 6 20 8 -52 8 -51 -1 -93 -4 -93 -9z"/>
<path d="M5535 6419 c-11 -17 1 -21 15 -4 8 9 8 15 2 15 -6 0 -14 -5 -17 -11z"/>
<path d="M5740 6322 c0 -4 9 -13 20 -20 16 -10 18 -16 10 -38 -13 -33 -13 -34
8 -34 41 0 58 61 25 86 -19 14 -63 19 -63 6z"/>
<path d="M5860 6313 c0 -5 7 -17 15 -27 13 -17 15 -18 15 -3 0 9 5 17 11 17 5
0 7 5 4 10 -7 12 -45 14 -45 3z"/>
<path d="M5685 6290 c3 -5 12 -7 20 -3 21 7 19 13 -6 13 -11 0 -18 -4 -14 -10z"/>
<path d="M6005 6250 c3 -5 13 -10 21 -10 8 0 12 5 9 10 -3 6 -13 10 -21 10 -8
0 -12 -4 -9 -10z"/>
<path d="M6340 6240 c8 -5 24 -10 35 -10 17 0 17 2 5 10 -8 5 -24 10 -35 10
-17 0 -17 -2 -5 -10z"/>
<path d="M6020 6100 c0 -5 5 -10 10 -10 6 0 10 5 10 10 0 6 -4 10 -10 10 -5 0
-10 -4 -10 -10z"/>
<path d="M2750 5990 c0 -5 5 -10 11 -10 5 0 7 5 4 10 -3 6 -8 10 -11 10 -2 0
-4 -4 -4 -10z"/>
<path d="M2306 5931 c17 -4 36 -11 42 -15 7 -4 12 -1 12 8 0 12 -10 16 -42 15
-41 -1 -41 -1 -12 -8z"/>
<path d="M2378 5933 c6 -2 18 -2 25 0 6 3 1 5 -13 5 -14 0 -19 -2 -12 -5z"/>
<path d="M2408 5893 c17 -2 47 -2 65 0 17 2 3 4 -33 4 -36 0 -50 -2 -32 -4z"/>
<path d="M6390 5790 c0 -5 11 -10 24 -10 14 0 28 5 31 10 4 6 -7 10 -24 10
-17 0 -31 -4 -31 -10z"/>
<path d="M2206 5657 c3 -10 9 -15 12 -12 3 3 0 11 -7 18 -10 9 -11 8 -5 -6z"/>
<path d="M6670 5645 c0 -8 4 -15 10 -15 5 0 7 7 4 15 -4 8 -8 15 -10 15 -2 0
-4 -7 -4 -15z"/>
<path d="M2380 5570 c-20 -6 -13 -8 29 -9 44 -1 52 -4 47 -17 -3 -9 -6 -29 -6
-45 l0 -29 -127 -2 c-122 -2 -123 -2 -30 -5 67 -3 97 -7 97 -16 0 -8 3 -8 9 2
14 22 51 4 51 -25 0 -20 5 -24 30 -24 40 0 38 -18 -2 -23 -18 -2 26 -5 99 -5
90 -1 134 2 139 10 4 6 3 8 -3 5 -6 -4 -13 2 -16 13 -3 11 -19 28 -35 37 l-31
18 27 11 c26 12 25 12 -21 13 -46 1 -107 26 -107 43 0 4 -5 8 -12 8 -6 0 -26
11 -44 25 -34 26 -51 29 -94 15z m125 -100 c-3 -5 -16 -10 -28 -10 -18 0 -19
2 -7 10 20 13 43 13 35 0z"/>
<path d="M2123 5563 c15 -2 37 -2 50 0 12 2 0 4 -28 4 -27 0 -38 -2 -22 -4z"/>
<path d="M6873 5564 c3 -3 22 -6 42 -6 20 0 39 3 42 6 4 3 -15 6 -42 6 -27 0
-46 -3 -42 -6z"/>
<path d="M6940 5461 c0 -11 10 -27 22 -35 25 -18 84 -21 93 -6 4 7 -6 10 -28
8 -37 -2 -67 15 -67 38 0 8 -4 14 -10 14 -5 0 -10 -9 -10 -19z"/>
<path d="M2240 5424 c0 -8 5 -12 10 -9 6 3 10 10 10 16 0 5 -4 9 -10 9 -5 0
-10 -7 -10 -16z"/>
<path d="M6600 5433 c0 -6 8 -17 18 -24 16 -13 16 -13 2 6 -8 11 -16 22 -17
24 -2 2 -3 0 -3 -6z"/>
<path d="M1782 5396 c1 -10 8 -17 13 -17 15 1 12 24 -3 29 -9 3 -13 -2 -10
-12z"/>
<path d="M2370 5392 c0 -18 6 -22 33 -21 17 0 25 3 17 6 -8 3 -23 12 -32 21
-16 14 -18 13 -18 -6z"/>
<path d="M8200 5393 c0 -13 5 -23 10 -23 13 0 13 11 0 30 -8 12 -10 11 -10 -7z"/>
<path d="M1848 5378 c9 -9 15 -9 24 0 9 9 7 12 -12 12 -19 0 -21 -3 -12 -12z"/>
<path d="M2290 5381 c0 -5 6 -11 13 -14 18 -6 48 4 41 14 -7 12 -54 12 -54 0z"/>
<path d="M1977 5354 c9 -15 19 -21 21 -15 4 13 -16 41 -29 41 -5 0 -2 -12 8
-26z"/>
<path d="M2218 5373 c12 -2 30 -2 40 0 9 3 -1 5 -23 4 -22 0 -30 -2 -17 -4z"/>
<path d="M918 5343 c6 -2 18 -2 25 0 6 3 1 5 -13 5 -14 0 -19 -2 -12 -5z"/>
<path d="M2980 5315 c-7 -9 -10 -18 -7 -22 8 -7 37 15 37 28 0 14 -16 11 -30
-6z"/>
<path d="M1945 5310 c3 -5 11 -10 16 -10 6 0 7 5 4 10 -3 6 -11 10 -16 10 -6
0 -7 -4 -4 -10z"/>
<path d="M2172 5287 c-13 -13 -59 -35 -106 -51 -47 -15 -89 -33 -95 -39 -16
-20 -39 -97 -31 -102 5 -3 11 -1 15 4 4 7 15 7 32 0 15 -5 38 -7 53 -4 14 3
37 1 51 -4 21 -9 19 -10 -21 -12 -25 -2 -61 -4 -81 -4 -66 -3 -69 -6 -69 -90
0 -42 -5 -85 -10 -95 -7 -13 -7 -21 0 -25 6 -3 10 -51 10 -108 0 -56 4 -109
10 -117 5 -9 5 -19 -1 -27 -16 -18 -1 -53 40 -96 47 -50 84 -69 151 -76 48 -5
55 -9 58 -29 2 -13 9 -21 15 -19 7 2 11 11 9 21 -3 14 13 16 130 18 291 3 414
14 450 41 38 28 68 77 68 110 0 19 4 25 15 21 11 -5 15 1 15 25 0 18 -5 31
-12 31 -9 0 -8 4 2 10 24 16 29 12 35 -27 11 -66 64 -151 109 -175 31 -17 147
-38 172 -32 19 5 26 1 33 -17 l8 -24 7 23 c9 26 31 28 87 5 40 -15 45 -15 91
1 35 12 53 14 67 6 28 -14 79 -12 141 6 31 9 67 13 86 10 18 -4 35 -2 38 3 4
5 21 5 43 0 61 -14 106 -10 141 11 34 21 55 19 46 -4 -6 -15 74 -32 87 -19 4
4 3 89 -1 188 -9 182 -3 226 24 180 6 -11 81 -92 166 -179 134 -138 159 -160
183 -157 19 2 27 -2 27 -13 0 -14 14 -16 98 -14 53 1 129 -2 169 -6 93 -10
106 -1 50 34 -25 15 -51 36 -58 47 -28 37 -342 308 -354 305 -17 -3 -29 33
-18 52 4 8 55 57 113 110 58 52 134 124 170 160 36 35 77 70 93 77 15 7 27 18
27 26 0 10 -34 13 -167 13 l-168 0 -42 -43 c-23 -23 -50 -50 -58 -59 -9 -10
-21 -21 -28 -25 -7 -5 -60 -58 -119 -118 l-106 -110 -4 110 c-2 60 0 118 5
128 4 10 5 38 1 62 -6 43 -7 44 -48 50 -22 3 -79 5 -126 3 l-85 -3 2 -35 c5
-95 3 -593 -3 -601 -9 -15 -34 10 -34 34 0 18 -4 19 -57 13 -100 -11 -296 -23
-349 -21 -68 2 -144 24 -144 41 0 19 -29 18 -51 -2 -10 -9 -23 -13 -28 -9 -16
9 -14 65 2 65 8 0 22 8 31 19 16 18 16 19 -13 29 -26 9 -31 16 -31 41 0 21 5
31 15 31 14 0 13 3 -1 25 -9 15 -14 34 -10 47 4 17 -2 29 -22 45 l-27 22 27 1
c15 0 30 5 33 10 4 6 23 10 43 10 75 -1 172 13 183 26 9 11 13 11 26 -1 10
-10 37 -15 86 -16 40 0 120 -2 180 -5 65 -3 107 -1 107 5 0 5 -6 12 -12 14
-10 4 -10 6 0 6 9 1 12 28 12 101 0 99 0 101 -26 110 -14 6 -22 15 -19 20 5 7
-38 8 -132 3 -76 -4 -245 -7 -375 -7 -131 -1 -238 -3 -238 -6 0 -4 5 -11 12
-18 8 -8 4 -20 -16 -47 l-27 -35 48 -1 48 -1 -47 -8 c-76 -13 -79 -16 -81
-107 -2 -75 -1 -80 15 -72 23 12 23 7 -2 -33 -11 -18 -20 -45 -20 -60 0 -24
-4 -28 -30 -28 -27 0 -30 2 -20 19 15 28 12 67 -6 103 -14 26 -14 30 -1 25 12
-4 16 6 19 51 3 31 2 58 -3 60 -5 2 -18 20 -30 41 -25 45 -65 71 -108 71 -22
0 -31 5 -31 16 0 14 -10 16 -72 12 -40 -3 -82 -9 -92 -14 -13 -5 -17 -4 -12 4
11 18 -57 25 -165 19 -126 -8 -172 -1 -164 24 8 25 3 24 -23 -4z m1486 -24
c-27 -2 -69 -2 -95 0 -27 2 -5 3 47 3 52 0 74 -1 48 -3z m-1325 -20 c-18 -2
-48 -2 -65 0 -18 2 -4 4 32 4 36 0 50 -2 33 -4z m1052 -3 c3 -5 1 -10 -4 -10
-6 0 -11 5 -11 10 0 6 2 10 4 10 3 0 8 -4 11 -10z m-80 -10 c3 -5 1 -10 -4
-10 -6 0 -11 5 -11 10 0 6 2 10 4 10 3 0 8 -4 11 -10z m-655 -16 c0 -8 -4 -12
-10 -9 -5 3 -10 10 -10 16 0 5 5 9 10 9 6 0 10 -7 10 -16z m410 -14 c0 -5 -2
-10 -4 -10 -3 0 -8 5 -11 10 -3 6 -1 10 4 10 6 0 11 -4 11 -10z m-416 -26 c3
-8 2 -12 -4 -9 -6 3 -10 10 -10 16 0 14 7 11 14 -7z m581 -4 c4 -6 -12 -10
-42 -9 -39 1 -43 3 -23 9 36 11 58 11 65 0z m71 -46 c-3 -9 -6 -18 -6 -20 0
-2 -11 -4 -25 -4 -31 0 -32 13 -2 28 31 15 40 14 33 -4z m-106 -10 c0 -2 -17
-4 -37 -4 -24 0 -33 3 -25 9 12 7 62 4 62 -5z m-887 -1 c-13 -2 -33 -2 -45 0
-13 2 -3 4 22 4 25 0 35 -2 23 -4z m1357 -8 c16 -19 0 -19 -26 0 -16 12 -16
14 -3 15 9 0 22 -7 29 -15z m-1513 -1 c-3 -3 -12 -4 -19 -1 -8 3 -5 6 6 6 11
1 17 -2 13 -5z m162 -20 c10 -9 -35 -3 -49 6 -11 8 -7 9 15 4 17 -4 32 -8 34
-10z m324 -63 c9 -9 17 -267 8 -276 -3 -4 -6 -21 -6 -38 l0 -32 -117 -3 c-115
-3 -118 -2 -118 19 0 21 0 21 -18 -2 -16 -18 -28 -22 -68 -21 -30 1 -53 8 -60
17 -10 14 -13 14 -24 0 -16 -20 -33 -19 -52 3 -10 11 -17 49 -22 118 -8 131 1
222 23 227 27 8 445 -4 454 -12z m-528 -61 c-3 -5 -13 -10 -21 -10 -8 0 -12 5
-9 10 3 6 13 10 21 10 8 0 12 -4 9 -10z m665 -20 c11 -21 4 -25 -19 -11 -7 5
-10 14 -7 20 10 15 14 14 26 -9z m10 -75 c0 -8 -2 -15 -4 -15 -2 0 -6 7 -10
15 -3 8 -1 15 4 15 6 0 10 -7 10 -15z m128 -104 c3 -56 1 -61 -18 -61 -17 0
-20 6 -20 48 0 26 -3 57 -6 70 -6 20 -4 21 17 14 21 -8 24 -16 27 -71z m-141
53 c-3 -3 -12 -4 -19 -1 -8 3 -5 6 6 6 11 1 17 -2 13 -5z m-33 -49 c3 -8 4
-15 2 -15 -3 0 -11 -3 -19 -6 -12 -4 -14 0 -10 15 6 25 18 27 27 6z m266 -5
c0 -5 -5 -10 -11 -10 -5 0 -7 5 -4 10 3 6 8 10 11 10 2 0 4 -4 4 -10z m-170
-16 c0 -12 -6 -15 -22 -10 -13 3 -29 6 -35 6 -7 0 -13 5 -13 10 0 6 16 10 35
10 26 0 35 -4 35 -16z m7 -46 c-3 -8 -6 -5 -6 6 -1 11 2 17 5 13 3 -3 4 -12 1
-19z m-87 -25 c0 -13 -3 -13 -15 -3 -8 7 -15 19 -15 27 0 13 3 13 15 3 8 -7
15 -19 15 -27z m1290 -13 c0 -5 -7 -7 -15 -4 -8 4 -15 8 -15 10 0 2 7 4 15 4
8 0 15 -4 15 -10z m-1303 -44 c-4 -9 -14 -16 -22 -16 -9 0 -14 3 -12 8 2 4 7
16 11 26 5 14 10 16 18 8 6 -6 8 -18 5 -26z m213 -12 c0 -7 -4 -16 -10 -19 -5
-3 -10 0 -10 7 0 7 -3 24 -6 38 -5 24 -5 24 10 6 9 -11 16 -25 16 -32z m722
24 c-7 -7 -12 -8 -12 -2 0 6 3 14 7 17 3 4 9 5 12 2 2 -3 -1 -11 -7 -17z
m-1287 3 c3 -5 1 -12 -5 -16 -5 -3 -10 1 -10 9 0 18 6 21 15 7z m881 -18 c-10
-10 -19 5 -10 18 6 11 8 11 12 0 2 -7 1 -15 -2 -18z m698 7 c19 -7 26 -17 26
-36 0 -34 -37 -94 -57 -94 -15 0 -15 2 0 18 8 9 19 30 22 45 6 22 3 31 -14 43
-39 28 -25 43 23 24z m-864 -21 c0 -6 -4 -7 -10 -4 -5 3 -10 11 -10 16 0 6 5
7 10 4 6 -3 10 -11 10 -16z m-312 -6 c-2 -10 -14 -20 -28 -22 -25 -3 -25 -3
-6 18 23 26 39 27 34 4z m202 -8 c9 -11 10 -19 3 -26 -6 -6 -13 -1 -21 16 -13
28 -2 34 18 10z m792 -17 c-7 -7 -12 -8 -12 -2 0 6 3 14 7 17 3 4 9 5 12 2 2
-3 -1 -11 -7 -17z m-86 -25 c-3 -3 -13 -3 -22 1 -16 6 -15 8 2 21 16 12 19 12
22 -1 2 -9 1 -18 -2 -21z m-1441 17 c-3 -5 -11 -10 -16 -10 -6 0 -7 5 -4 10 3
6 11 10 16 10 6 0 7 -4 4 -10z m191 -27 c-10 -10 -19 5 -10 18 6 11 8 11 12 0
2 -7 1 -15 -2 -18z m64 7 c0 -5 -4 -10 -10 -10 -5 0 -10 5 -10 10 0 6 5 10 10
10 6 0 10 -4 10 -10z m-255 -30 c-3 -5 -14 -10 -23 -10 -15 0 -15 2 -2 10 20
13 33 13 25 0z m1555 -10 c0 -11 -7 -20 -15 -20 -15 0 -21 21 -8 33 12 13 23
7 23 -13z m-1320 -20 c0 -5 -4 -10 -10 -10 -5 0 -10 5 -10 10 0 6 5 10 10 10
6 0 10 -4 10 -10z m-140 -22 c0 -6 -6 -5 -15 2 -8 7 -15 14 -15 16 0 2 7 1 15
-2 8 -4 15 -11 15 -16z"/>
<path d="M2410 4959 c0 -5 5 -7 10 -4 6 3 10 8 10 11 0 2 -4 4 -10 4 -5 0 -10
-5 -10 -11z"/>
<path d="M2180 4941 c0 -5 6 -14 14 -20 11 -9 16 -9 21 0 4 6 1 15 -6 20 -18
11 -29 11 -29 0z"/>
<path d="M2198 4813 c7 -3 16 -2 19 1 4 3 -2 6 -13 5 -11 0 -14 -3 -6 -6z"/>
<path d="M2210 4752 c0 -11 69 -27 78 -18 9 10 -4 17 -42 23 -22 3 -36 2 -36
-5z"/>
<path d="M3777 5283 c18 -2 50 -2 70 0 21 2 7 4 -32 4 -38 0 -55 -2 -38 -4z"/>
<path d="M4941 5260 l-93 -5 -38 -42 c-21 -24 -42 -43 -47 -43 -14 0 -93 -84
-93 -98 0 -7 -4 -11 -9 -8 -5 3 -31 -15 -57 -41 -108 -102 -164 -158 -164
-164 0 -3 66 -64 148 -136 81 -72 161 -144 177 -160 17 -15 56 -49 87 -75 l55
-48 147 0 147 0 -30 43 c-17 23 -36 58 -41 77 -6 19 -10 151 -10 293 0 238 1
262 20 304 11 25 20 54 20 64 0 10 5 21 12 25 6 4 8 3 4 -4 -9 -14 7 -23 23
-12 8 4 10 13 7 19 -9 14 -43 14 -51 1 -4 -7 -11 -8 -18 -2 -17 14 -86 18
-196 12z m79 -124 c0 -18 -6 -25 -22 -28 -22 -3 -23 -8 -26 -95 l-3 -93 26 0
c20 0 25 -5 25 -25 0 -25 -1 -25 -85 -25 -84 0 -85 0 -85 25 0 19 5 25 23 25
22 0 23 4 25 90 l2 90 -25 0 c-20 0 -25 5 -25 23 0 13 3 27 7 30 3 4 42 7 85
7 76 0 78 -1 78 -24z m-240 -70 c0 -3 -4 -8 -10 -11 -5 -3 -10 -1 -10 4 0 6 5
11 10 11 6 0 10 -2 10 -4z m287 -11 c8 -22 -6 -33 -17 -15 -13 20 -12 30 0 30
6 0 13 -7 17 -15z m-385 -142 c24 -22 23 -75 -2 -98 -45 -41 -120 -9 -120 51
0 54 80 85 122 47z m-162 -89 c0 -8 -5 -12 -10 -9 -6 4 -8 11 -5 16 9 14 15
11 15 -7z m540 -24 c0 -29 -2 -30 -45 -30 l-45 0 -1 -72 c0 -40 0 -92 1 -115
2 -43 1 -43 -34 -43 l-36 0 0 115 0 115 -45 0 c-43 0 -45 1 -45 30 l0 30 125
0 125 0 0 -30z m-225 -70 c3 -5 2 -10 -4 -10 -5 0 -13 5 -16 10 -3 6 -2 10 4
10 5 0 13 -4 16 -10z m190 -180 c3 -5 1 -10 -4 -10 -6 0 -11 5 -11 10 0 6 2
10 4 10 3 0 8 -4 11 -10z m-65 -30 c0 -5 -9 -10 -21 -10 -11 0 -17 5 -14 10 3
6 13 10 21 10 8 0 14 -4 14 -10z m63 -7 c-7 -2 -21 -2 -30 0 -10 3 -4 5 12 5
17 0 24 -2 18 -5z"/>
<path d="M4630 4890 c0 -5 -9 -10 -20 -10 -23 0 -27 -15 -5 -24 8 -3 12 -12 9
-21 -3 -8 -2 -15 4 -15 5 0 12 7 16 15 3 9 12 12 22 8 12 -4 15 -2 10 8 -3 8
-9 22 -12 32 -7 18 -24 24 -24 7z"/>
<path d="M5349 5254 c-7 -8 -36 -29 -64 -47 -75 -48 -83 -81 -84 -340 l-1
-208 32 -14 33 -14 -32 -1 c-52 0 -45 -43 23 -126 30 -37 41 -43 101 -55 65
-13 458 -19 578 -9 75 6 125 31 170 86 l40 48 3 251 c3 247 3 251 -21 305 -29
64 -55 90 -117 115 -39 15 -86 18 -346 21 -257 3 -302 1 -315 -12z m702 -96
c13 -25 0 -22 -28 4 -13 12 -23 31 -23 42 0 20 2 20 21 -4 11 -14 24 -33 30
-42z m-119 -5 c10 -9 18 -20 18 -25 0 -10 -68 -9 -94 1 -18 7 -18 8 5 24 30
21 48 21 71 0z m168 -33 c0 -5 -4 -10 -9 -10 -6 0 -13 5 -16 10 -3 6 1 10 9
10 9 0 16 -4 16 -10z m-540 -24 c0 -3 -4 -8 -10 -11 -5 -3 -10 -1 -10 4 0 6 5
11 10 11 6 0 10 -2 10 -4z m304 -25 c14 -6 16 -10 7 -15 -17 -11 -103 3 -96
15 7 11 62 11 89 0z m124 2 c-10 -2 -26 -2 -35 0 -10 3 -2 5 17 5 19 0 27 -2
18 -5z m82 -3 c0 -5 -7 -7 -15 -4 -8 4 -15 8 -15 10 0 2 7 4 15 4 8 0 15 -4
15 -10z m-715 -30 c3 -5 -1 -10 -9 -10 -9 0 -16 5 -16 10 0 6 4 10 9 10 6 0
13 -4 16 -10z m412 -10 l141 0 16 -52 c10 -34 12 -56 6 -62 -6 -6 -10 -57 -10
-116 0 -58 -4 -110 -8 -116 -11 -17 -91 -55 -102 -49 -6 3 -10 13 -10 21 0 12
-30 14 -179 14 l-178 0 -7 38 c-3 20 -6 96 -6 168 0 163 4 167 130 159 36 -3
129 -5 207 -5z m145 -445 c0 -5 -5 -11 -11 -13 -6 -2 -11 4 -11 13 0 9 5 15
11 13 6 -2 11 -8 11 -13z m-122 -59 c0 -3 -4 -8 -10 -11 -5 -3 -10 -1 -10 4 0
6 5 11 10 11 6 0 10 -2 10 -4z m87 -12 c-3 -3 -12 -4 -19 -1 -8 3 -5 6 6 6 11
1 17 -2 13 -5z"/>
<path d="M1004 5236 c-3 -14 -3 -42 0 -62 6 -31 4 -36 -14 -41 -20 -5 -19 -7
11 -25 21 -13 29 -25 26 -36 -2 -9 -6 -23 -8 -31 -2 -7 2 -16 9 -18 6 -3 12 3
12 13 0 16 1 16 20 -1 21 -19 29 -95 10 -95 -5 0 -10 10 -10 22 0 12 -3 18 -7
15 -3 -4 -15 0 -25 10 -17 15 -18 15 -19 -3 -4 -144 3 -540 9 -546 5 -5 62 -7
128 -6 l119 3 -2 165 c-2 91 -5 177 -8 192 -11 49 15 42 81 -23 35 -35 64 -68
64 -74 0 -5 21 -23 46 -39 51 -32 79 -68 70 -91 -4 -11 1 -15 20 -15 27 0 74
-40 74 -64 0 -8 20 -24 45 -36 39 -19 60 -22 177 -21 72 1 134 4 137 7 9 8
-163 174 -186 180 -13 4 -23 13 -23 22 0 9 -14 30 -31 48 l-30 31 47 12 c58
15 105 61 123 120 19 64 25 171 12 218 -10 36 -16 42 -49 51 l-37 10 33 1 c27
1 32 5 32 26 0 18 -11 32 -37 49 -76 49 -73 49 -678 45 -11 0 -46 3 -77 7 -55
6 -57 6 -64 -20z m288 -86 c-3 -21 -10 -30 -23 -30 -11 0 -16 5 -13 14 3 7 -3
17 -13 21 -15 7 -11 10 17 15 19 4 35 8 36 9 0 0 -1 -12 -4 -29z m181 13 c-7
-2 -21 -2 -30 0 -10 3 -4 5 12 5 17 0 24 -2 18 -5z m-433 -22 c0 -6 -4 -13
-10 -16 -5 -3 -10 1 -10 9 0 9 5 16 10 16 6 0 10 -4 10 -9z m166 -16 c17 -13
18 -14 1 -15 -14 0 -16 -4 -8 -19 9 -16 7 -17 -14 -13 -26 4 -32 16 -15 27 5
3 7 12 3 20 -7 19 8 19 33 0z m-61 -67 c-5 -13 -11 -13 -45 4 l-40 20 23 18
c22 18 23 18 45 -4 13 -13 20 -29 17 -38z m585 42 c-20 -13 -50 -13 -50 0 0 6
15 10 33 10 24 0 28 -3 17 -10z m-490 -36 c0 -13 -4 -24 -10 -24 -5 0 -10 14
-10 31 0 17 4 28 10 24 6 -3 10 -17 10 -31z m50 16 c0 -21 -15 -27 -25 -10 -7
12 2 30 16 30 5 0 9 -9 9 -20z m47 4 c-3 -3 -12 -4 -19 -1 -8 3 -5 6 6 6 11 1
17 -2 13 -5z m90 -36 c-3 -8 -6 -5 -6 6 -1 11 2 17 5 13 3 -3 4 -12 1 -19z
m-107 -20 c16 6 50 3 102 -8 l78 -17 17 26 c10 15 18 21 21 13 2 -6 14 -12 27
-12 13 0 36 -5 50 -12 20 -9 25 -18 25 -49 0 -60 -19 -67 -200 -70 -85 -1
-161 -1 -167 0 -8 0 -13 16 -13 41 0 33 -3 40 -20 40 -26 0 -26 20 0 27 12 3
20 13 19 22 -3 32 2 36 19 13 14 -19 22 -21 42 -14z m-183 -564 c-3 -3 -12 -4
-19 -1 -8 3 -5 6 6 6 11 1 17 -2 13 -5z"/>
<path d="M1305 4960 c-3 -5 3 -10 15 -10 12 0 18 5 15 10 -3 6 -10 10 -15 10
-5 0 -12 -4 -15 -10z"/>
<path d="M6188 5237 c-2 -13 -1 -50 4 -83 5 -32 8 -68 8 -79 -8 -154 -10 -320
-5 -403 7 -102 8 -104 46 -148 21 -25 39 -50 39 -55 0 -6 8 -8 18 -5 12 4 26
-1 36 -13 15 -16 28 -19 70 -16 28 2 119 0 201 -5 149 -7 290 4 372 31 77 25
133 133 133 256 0 37 4 63 10 63 7 0 7 6 0 20 -6 11 -9 65 -8 122 2 111 -5
148 -28 148 -19 0 -18 16 3 24 28 11 1 25 -57 29 l-55 3 61 2 c70 2 74 6 74
83 l0 50 -127 -3 -128 -3 3 -55 c1 -30 -3 -67 -9 -82 -6 -15 -8 -36 -4 -45 4
-10 8 -96 9 -191 1 -164 0 -175 -19 -185 -11 -5 -96 -11 -192 -13 -195 -3
-204 0 -203 64 3 226 3 230 -21 234 -21 3 -22 4 -6 20 9 9 17 23 17 32 0 8 8
20 18 25 14 9 14 12 3 20 -7 5 -14 21 -15 37 -1 16 -5 34 -9 41 -4 6 1 25 10
41 14 25 15 32 4 46 -15 18 -57 21 -97 6 -19 -8 -30 -8 -38 0 -5 5 -33 10 -62
10 -46 0 -52 -3 -56 -23z m34 -109 c-15 -15 -24 -6 -16 16 5 12 10 14 17 7 8
-8 8 -14 -1 -23z m174 -16 c-11 -3 -15 -10 -11 -21 4 -15 1 -17 -20 -13 -28 5
-33 20 -11 28 8 3 12 12 9 20 -5 13 -1 13 23 2 21 -10 24 -14 10 -16z m-83
-18 c11 -14 16 -32 12 -42 -4 -10 -9 -12 -13 -6 -4 6 -22 16 -41 24 -31 13
-32 14 -12 21 11 5 21 13 21 19 0 17 14 11 33 -16z m587 6 c-19 -13 -30 -13
-30 0 0 6 10 10 23 10 18 0 19 -2 7 -10z m-483 -47 c-4 -17 -4 -17 -12 0 -4 9
-4 25 0 35 8 16 8 16 12 0 3 -10 3 -26 0 -35z m-159 -74 c-4 -41 -4 -42 -15
-19 -5 14 -14 23 -19 20 -5 -3 -10 5 -12 18 -2 12 1 22 7 22 6 0 11 8 11 17 0
16 1 16 16 2 10 -11 14 -30 12 -60z m762 -334 c0 -8 -7 -15 -15 -15 -9 0 -12
6 -9 15 4 8 10 15 15 15 5 0 9 -7 9 -15z m-60 -15 c0 -5 -5 -10 -11 -10 -5 0
-7 5 -4 10 3 6 8 10 11 10 2 0 4 -4 4 -10z m-25 -100 c-3 -5 -12 -10 -18 -10
-7 0 -6 4 3 10 19 12 23 12 15 0z"/>
<path d="M7135 5242 c3 -7 5 -40 5 -72 0 -55 2 -58 30 -70 16 -7 40 -10 52 -7
12 4 34 3 48 0 l25 -7 -30 -7 c-16 -4 -53 -7 -82 -8 l-52 -1 10 -29 c10 -28
11 -29 41 -14 37 19 200 12 225 -9 13 -10 18 -9 29 7 12 16 14 -25 16 -286 l3
-304 30 3 c38 5 41 8 25 27 -17 21 -5 19 28 -4 18 -12 51 -21 95 -24 59 -4 67
-3 67 13 0 10 3 32 6 49 6 27 4 31 -15 31 -27 0 -27 17 -1 25 16 5 20 16 22
58 1 29 0 61 -1 72 -9 71 -19 305 -14 329 l5 29 139 -6 c129 -5 140 -4 165 15
19 15 48 23 107 28 l82 7 -88 2 c-86 1 -88 2 -98 29 -10 26 -8 80 6 114 10 24
-31 35 -54 14 -23 -21 -71 -21 -71 -1 0 12 -13 14 -77 9 -43 -3 -84 -7 -90
-10 -7 -2 -13 0 -13 4 0 4 -55 7 -123 7 -78 1 -106 -2 -77 -6 32 -5 19 -6 -47
-6 -51 1 -93 5 -93 9 0 4 -54 7 -120 6 -98 -2 -120 -5 -115 -16z m138 -9 c-7
-2 -21 -2 -30 0 -10 3 -4 5 12 5 17 0 24 -2 18 -5z m554 -15 c-3 -8 -6 -5 -6
6 -1 11 2 17 5 13 3 -3 4 -12 1 -19z m3 -49 c0 -6 -4 -7 -10 -4 -5 3 -10 11
-10 16 0 6 5 7 10 4 6 -3 10 -11 10 -16z m-337 -56 c-13 -2 -33 -2 -45 0 -13
2 -3 4 22 4 25 0 35 -2 23 -4z m-166 -9 c-3 -3 -12 -4 -19 -1 -8 3 -5 6 6 6
11 1 17 -2 13 -5z m156 -21 c-7 -2 -19 -2 -25 0 -7 3 -2 5 12 5 14 0 19 -2 13
-5z m44 -135 c-3 -7 -5 -2 -5 12 0 14 2 19 5 13 2 -7 2 -19 0 -25z m43 -328
c0 -11 -2 -20 -4 -20 -2 0 -6 9 -9 20 -3 11 -1 20 4 20 5 0 9 -9 9 -20z m61
-83 c-13 -13 -26 -3 -16 12 3 6 11 8 17 5 6 -4 6 -10 -1 -17z m36 -69 c-3 -7
-5 -2 -5 12 0 14 2 19 5 13 2 -7 2 -19 0 -25z"/>
<path d="M6470 5215 c0 -18 24 -46 50 -60 43 -22 37 -2 -10 35 -22 17 -40 29
-40 25z"/>
<path d="M6756 5144 c-8 -22 1 -31 16 -16 9 9 9 15 1 23 -7 7 -12 5 -17 -7z"/>
<path d="M6710 5140 c0 -5 5 -10 10 -10 6 0 10 5 10 10 0 6 -4 10 -10 10 -5 0
-10 -4 -10 -10z"/>
<path d="M6648 5133 c6 -2 18 -2 25 0 6 3 1 5 -13 5 -14 0 -19 -2 -12 -5z"/>
<path d="M6575 5120 c3 -5 13 -10 21 -10 8 0 14 5 14 10 0 6 -9 10 -21 10 -11
0 -17 -4 -14 -10z"/>
<path d="M798 5093 c7 -3 16 -2 19 1 4 3 -2 6 -13 5 -11 0 -14 -3 -6 -6z"/>
<path d="M6785 5031 c3 -7 -3 -11 -15 -11 -16 0 -20 -4 -16 -16 3 -9 6 -18 6
-20 0 -2 9 -4 20 -4 13 0 20 -7 20 -20 0 -11 5 -20 10 -20 6 0 10 17 10 38 0
27 -6 41 -21 50 -12 8 -18 9 -14 3z"/>
<path d="M8145 4960 c-3 -5 3 -10 15 -10 12 0 18 5 15 10 -3 6 -10 10 -15 10
-5 0 -12 -4 -15 -10z"/>
<path d="M3675 4870 c-3 -5 -1 -10 4 -10 6 0 11 5 11 10 0 6 -2 10 -4 10 -3 0
-8 -4 -11 -10z"/>
<path d="M965 4640 c-3 -5 -2 -10 4 -10 5 0 13 5 16 10 3 6 2 10 -4 10 -5 0
-13 -4 -16 -10z"/>
<path d="M7800 4640 c0 -5 4 -10 9 -10 6 0 13 5 16 10 3 6 -1 10 -9 10 -9 0
-16 -4 -16 -10z"/>
<path d="M6175 4520 c-3 -5 -2 -10 4 -10 5 0 13 5 16 10 3 6 2 10 -4 10 -5 0
-13 -4 -16 -10z"/>
<path d="M1370 4510 c0 -5 5 -10 11 -10 5 0 7 5 4 10 -3 6 -8 10 -11 10 -2 0
-4 -4 -4 -10z"/>
<path d="M1508 4503 c7 -3 16 -2 19 1 4 3 -2 6 -13 5 -11 0 -14 -3 -6 -6z"/>
<path d="M4410 4410 c0 -6 7 -10 15 -10 8 0 15 2 15 4 0 2 -7 6 -15 10 -8 3
-15 1 -15 -4z"/>
<path d="M1070 4395 c-11 -13 -10 -14 4 -9 9 3 16 10 16 15 0 13 -6 11 -20 -6z"/>
<path d="M7910 4395 c-11 -13 -10 -14 4 -9 9 3 16 10 16 15 0 13 -6 11 -20 -6z"/>
<path d="M4340 4354 c0 -8 -137 -11 -467 -12 -623 -3 -606 -3 -611 3 -3 3 -11
0 -19 -7 -8 -7 -17 -8 -23 -2 -5 5 -118 7 -267 4 -213 -4 -264 -8 -290 -22
-28 -14 -34 -14 -44 -1 -7 8 -22 19 -33 25 -19 10 -20 10 -7 -6 12 -14 11 -20
-9 -41 -26 -28 -27 -26 18 -49 40 -21 36 -27 -22 -36 -38 -6 -45 -4 -49 12 -4
14 -11 17 -36 12 -29 -6 -31 -5 -31 24 0 21 7 35 25 46 47 31 30 38 -77 32
-57 -3 -128 -5 -158 -5 -54 0 -54 0 -36 -20 19 -21 19 -21 -7 -21 -15 0 -33
10 -45 25 -19 24 -24 25 -135 25 -64 0 -150 -5 -192 -11 -56 -7 -80 -7 -90 1
-17 14 -249 13 -399 -2 -82 -8 -110 -8 -115 1 -5 8 -39 11 -107 9 l-99 -3 -8
-220 c-4 -121 -6 -295 -4 -387 3 -113 1 -168 -6 -168 -5 0 -2 -9 7 -19 21 -23
14 -41 -17 -42 -17 -1 -18 -2 -4 -6 31 -8 18 -23 -20 -23 -28 0 -34 -3 -23
-10 8 -5 25 -10 36 -10 22 0 59 -44 50 -59 -3 -4 25 -13 61 -21 53 -10 352
-13 1457 -14 765 -1 1397 -5 1404 -10 7 -4 63 -3 125 3 140 14 337 18 330 9
-4 -8 1452 -14 1472 -7 6 2 314 5 685 6 371 1 693 5 716 8 31 5 45 3 57 -10
10 -9 17 -13 18 -8 0 4 4 -1 9 -12 7 -15 9 -16 9 -4 1 27 105 42 188 28 78
-14 320 -6 371 12 36 12 52 35 52 72 0 21 -4 24 -27 21 -25 -3 -25 -3 4 8 25
8 34 18 39 42 3 17 4 146 2 286 -3 305 0 458 12 499 7 25 5 30 -13 35 -12 3
-350 5 -752 5 -2186 -2 -2889 2 -2897 14 -5 7 -8 8 -8 1z m-2885 -44 c-8 -13
-105 -13 -125 0 -10 7 7 10 58 10 46 0 71 -4 67 -10z m633 -2 c20 -20 14 -24
-23 -20 -19 2 -35 7 -35 11 0 23 39 28 58 9z m-163 -8 c3 -5 1 -10 -4 -10 -6
0 -11 5 -11 10 0 6 2 10 4 10 3 0 8 -4 11 -10z m845 0 c0 -5 -7 -10 -15 -10
-8 0 -15 5 -15 10 0 6 7 10 15 10 8 0 15 -4 15 -10z m2050 -11 c0 -4 -7 -6
-15 -3 -8 4 -15 10 -15 15 0 4 7 6 15 3 8 -4 15 -10 15 -15z m-2432 -61 c-8
-6 -5 -7 10 -3 12 3 22 2 22 -3 0 -6 -12 -13 -27 -16 -16 -4 -37 -10 -48 -13
-17 -5 -18 -4 -6 11 12 14 11 16 -8 16 -27 0 -35 19 -21 54 l10 27 40 -32 c30
-24 37 -35 28 -41z m-1085 15 c15 -12 24 -24 19 -27 -13 -8 -84 43 -76 55 3 6
11 6 17 1 7 -5 25 -18 40 -29z m302 15 c-4 -13 -11 -27 -16 -32 -15 -17 -23 3
-11 29 15 32 36 34 27 3z m352 16 c-3 -3 -12 -4 -19 -1 -8 3 -5 6 6 6 11 1 17
-2 13 -5z m-749 -24 c12 -12 22 -25 22 -30 0 -6 10 -10 23 -10 12 0 28 -4 36
-9 11 -7 9 -11 -8 -20 -14 -8 -21 -8 -21 -1 0 22 -26 8 -37 -20 -14 -38 -51
-53 -93 -39 -35 13 -50 35 -50 75 0 63 81 97 128 54z m187 -10 c-5 -8 -11 -8
-17 -2 -6 6 -7 16 -3 22 5 8 11 8 17 2 6 -6 7 -16 3 -22z m895 15 c0 -8 -7
-15 -15 -15 -16 0 -20 12 -8 23 11 12 23 8 23 -8z m430 0 c-14 -16 -50 -21
-50 -6 0 8 15 14 54 20 5 0 3 -6 -4 -14z m5175 -10 c43 -42 29 -105 -26 -124
-64 -22 -124 39 -99 100 23 54 84 66 125 24z m-5655 5 c0 -5 -4 -10 -9 -10 -6
0 -13 5 -16 10 -3 6 1 10 9 10 9 0 16 -4 16 -10z m4110 0 c0 -5 -5 -10 -11
-10 -5 0 -7 5 -4 10 3 6 8 10 11 10 2 0 4 -4 4 -10z m-4313 -6 c-3 -3 -12 -4
-19 -1 -8 3 -5 6 6 6 11 1 17 -2 13 -5z m4931 -18 c-23 -22 -90 -38 -100 -23
-5 8 7 15 42 22 27 6 52 13 56 18 4 4 9 5 12 2 2 -2 -2 -11 -10 -19z m-5438 4
c0 -5 -8 -10 -17 -10 -15 0 -16 2 -3 10 19 12 20 12 20 0z m1495 0 c3 -5 1
-10 -4 -10 -6 0 -11 5 -11 10 0 6 2 10 4 10 3 0 8 -4 11 -10z m644 -6 c2 -2 2
-6 -1 -9 -9 -10 -58 6 -52 16 5 9 41 3 53 -7z m1151 -4 c0 -5 -4 -10 -10 -10
-5 0 -10 5 -10 10 0 6 5 10 10 10 6 0 10 -4 10 -10z m-3165 -29 c9 -18 11 -32
5 -36 -12 -7 -44 41 -35 55 9 15 13 13 30 -19z m1440 19 c3 -5 -1 -10 -10 -10
-9 0 -13 5 -10 10 3 6 8 10 10 10 2 0 7 -4 10 -10z m203 -8 c2 -7 -2 -10 -12
-6 -9 3 -16 11 -16 16 0 13 23 5 28 -10z m4392 9 c0 -5 -7 -12 -16 -15 -24 -9
-28 -7 -14 9 14 17 30 20 30 6z m-5940 -11 c0 -5 -7 -10 -16 -10 -8 0 -12 5
-9 10 3 6 10 10 16 10 5 0 9 -4 9 -10z m1248 -2 c-3 -7 -13 -15 -24 -17 -16
-3 -17 -1 -5 13 16 19 34 21 29 4z m2837 2 c-3 -5 -44 -10 -91 -10 -49 0 -84
4 -84 10 0 6 37 10 91 10 57 0 88 -4 84 -10z m-3567 -18 c2 -7 -7 -12 -23 -12
-24 0 -26 2 -15 15 14 17 31 16 38 -3z m4252 8 c0 -5 -4 -10 -10 -10 -5 0 -10
5 -10 10 0 6 5 10 10 10 6 0 10 -4 10 -10z m1054 1 c3 -5 -1 -12 -10 -15 -20
-8 -29 -1 -19 13 8 13 22 14 29 2z m-5414 -11 c0 -5 -4 -10 -10 -10 -5 0 -10
5 -10 10 0 6 5 10 10 10 6 0 10 -4 10 -10z m1368 4 c17 -4 32 -14 35 -24 6
-23 -13 -60 -38 -74 -10 -6 -28 -22 -38 -34 -16 -19 -22 -21 -28 -10 -12 19
-11 28 4 28 22 0 34 14 41 46 6 28 4 32 -24 44 -17 7 -33 17 -36 21 -6 10 40
12 84 3z m-2152 -29 c-6 -25 -6 -25 61 -25 52 0 64 3 55 12 -19 19 -14 30 8
18 11 -6 18 -15 15 -19 -3 -5 43 -9 101 -9 105 -1 106 -1 89 18 -23 26 -9 25
33 0 28 -17 50 -20 160 -20 134 0 190 -10 235 -42 46 -33 59 -72 65 -195 5
-106 6 -113 26 -114 20 0 20 -1 -3 -10 -19 -8 -21 -12 -11 -24 11 -13 10 -14
-4 -9 -12 5 -16 0 -16 -19 0 -72 -51 -132 -124 -146 -28 -5 -201 -12 -383 -16
l-333 -6 0 290 0 291 -25 0 c-34 0 -31 13 8 33 44 22 50 21 43 -8z m44 5 c0
-11 -4 -20 -10 -20 -5 0 -10 9 -10 20 0 11 5 20 10 20 6 0 10 -9 10 -20z m529
11 c8 -5 9 -11 3 -15 -13 -8 -42 3 -42 15 0 11 21 11 39 0z m4808 -7 c-3 -3
-12 -4 -19 -1 -8 3 -5 6 6 6 11 1 17 -2 13 -5z m303 -24 c-10 -7 12 -10 68
-10 l82 0 0 -110 c0 -89 -3 -110 -14 -110 -13 0 -13 -4 0 -35 7 -19 14 -50 14
-69 0 -29 -5 -38 -28 -50 -25 -13 -31 -13 -43 -1 -10 10 -23 12 -43 7 l-30 -8
36 -22 c25 -16 44 -21 62 -16 14 3 34 3 43 -2 22 -9 120 -14 308 -13 122 0
138 -1 121 -14 -17 -13 -18 -14 -2 -20 10 -4 22 -5 27 -1 5 3 9 -20 9 -50 0
-31 -1 -57 -2 -57 -11 -6 -565 -12 -561 -6 2 4 -21 7 -51 7 -56 0 -56 0 -56
30 0 37 16 38 42 5 11 -14 24 -25 29 -25 13 0 -6 36 -43 80 -31 38 -37 84 -13
98 14 7 14 13 0 51 -10 29 -15 81 -15 157 l0 114 -27 1 -28 1 28 10 c17 6 27
17 27 30 0 15 5 18 23 13 17 -5 19 -4 7 5 -13 9 -12 12 4 25 14 11 23 12 30 5
8 -8 6 -14 -4 -20z m-1020 10 c0 -5 -5 -10 -11 -10 -5 0 -7 5 -4 10 3 6 8 10
11 10 2 0 4 -4 4 -10z m-3154 -17 c71 2 137 7 147 11 21 10 23 -7 2 -27 -12
-13 -12 -17 5 -32 11 -10 23 -42 30 -84 13 -79 1 -154 -32 -188 l-21 -23 192
0 193 0 -81 89 c-44 48 -87 93 -94 99 -7 6 -41 12 -77 14 -43 2 -65 7 -68 17
-4 11 6 12 54 6 l59 -7 -19 21 c-11 12 -25 21 -33 21 -8 0 -12 4 -8 9 3 5 -5
18 -18 28 -51 41 -46 43 95 42 l133 0 30 -42 c17 -23 42 -47 55 -54 14 -7 25
-20 26 -30 3 -47 5 -53 21 -53 9 0 27 -10 40 -22 l23 -22 69 74 c58 62 72 72
84 61 9 -7 18 -8 21 -3 3 6 -4 13 -17 17 -14 4 -17 8 -9 12 7 2 19 18 27 34
l16 29 129 0 c77 0 130 -4 130 -10 0 -14 -35 -30 -66 -30 -25 0 -26 -1 -11
-22 15 -22 12 -27 -106 -147 l-122 -123 68 5 c37 2 67 3 67 1 0 -10 -98 -44
-127 -44 -44 0 -55 -27 -47 -124 l7 -73 -43 -7 c-23 -4 -45 -5 -47 -2 -2 2 3
18 11 35 9 17 12 32 6 36 -5 3 -14 -4 -20 -15 -6 -12 -18 -19 -25 -16 -8 3
-30 -6 -50 -20 -20 -13 -38 -24 -40 -24 -3 0 -5 44 -5 98 -1 139 4 135 -169
126 l-142 -7 33 -20 c44 -27 23 -32 -47 -11 -41 11 -54 19 -44 25 9 6 2 9 -24
9 l-38 0 26 -23 c24 -20 27 -32 32 -105 l6 -82 -87 -1 c-47 -1 -92 -2 -98 -3
-9 -1 -15 19 -18 57 -8 86 -10 87 -222 87 l-178 0 0 -57 c0 -32 -4 -63 -8 -69
-4 -6 -49 -14 -99 -16 l-93 -5 0 289 0 289 123 0 c67 0 173 0 235 -1 82 0 112
3 112 13 0 9 2 9 8 0 6 -9 43 -12 138 -10z m3984 7 c0 -5 -2 -10 -4 -10 -3 0
-8 5 -11 10 -3 6 -1 10 4 10 6 0 11 -4 11 -10z m-2714 -10 c53 0 62 -3 58 -15
-4 -9 5 -32 18 -53 36 -54 43 -79 21 -78 -10 1 -19 -3 -20 -9 -2 -5 7 -10 19
-10 17 0 29 -18 64 -100 55 -130 74 -161 85 -144 5 8 9 10 9 4 0 -29 34 51 91
216 l63 186 121 2 120 2 69 -205 c38 -113 74 -210 80 -216 20 -20 43 22 121
219 l80 200 103 1 c56 0 102 -3 102 -7 0 -20 -234 -550 -247 -560 -12 -9 -61
-13 -158 -13 l-142 0 -30 103 -31 102 -32 -3 c-29 -2 -31 -1 -20 13 8 9 21 14
31 12 15 -4 16 -1 8 20 -5 14 -8 37 -7 51 1 29 -39 105 -52 97 -4 -2 -15 -32
-24 -65 l-17 -61 -20 23 -20 23 5 -30 c3 -16 8 -43 12 -59 6 -25 2 -33 -22
-54 -19 -15 -25 -26 -16 -29 28 -11 -6 -128 -41 -137 -32 -8 -260 -7 -273 2
-16 10 -58 97 -93 189 -16 43 -59 146 -95 228 l-66 150 28 6 c15 4 33 5 40 3
8 -2 42 -4 78 -4z m1754 -17 c0 -9 9 -26 20 -38 29 -31 309 -508 303 -517 -2
-5 -50 -6 -106 -4 -90 3 -103 5 -116 25 -52 72 -29 65 -253 72 l-203 5 -32
-30 c-18 -16 -33 -38 -33 -47 0 -9 -7 -20 -16 -23 -26 -10 -36 -7 -30 9 3 9 0
15 -9 15 -9 0 -12 -6 -9 -15 5 -13 -8 -15 -81 -15 -50 0 -85 4 -83 9 2 6 77
136 168 290 l165 280 158 1 c141 0 157 -2 157 -17z m320 7 c0 -5 -4 -10 -9
-10 -6 0 -13 5 -16 10 -3 6 1 10 9 10 9 0 16 -4 16 -10z m120 -15 c0 -16 6
-25 16 -25 12 0 15 6 10 25 -6 24 -4 25 34 25 22 0 40 -4 40 -10 0 -5 5 -10
11 -10 5 0 7 5 4 10 -3 6 3 10 13 10 19 0 20 -8 18 -212 l-1 -213 125 -1 c69
-1 171 -3 228 -5 l102 -3 0 -52 c0 -66 -8 -88 -25 -74 -9 8 -15 8 -20 0 -4 -6
-109 -10 -311 -10 l-304 0 0 160 c0 136 2 160 15 160 21 0 19 17 -4 23 -22 6
-27 34 -23 145 l4 82 34 0 c30 0 34 -3 34 -25z m587 19 c-3 -3 -12 -4 -19 -1
-8 3 -5 6 6 6 11 1 17 -2 13 -5z m-93 -33 c3 -5 -4 -11 -16 -14 -25 -7 -33 -3
-23 12 8 13 32 14 39 2z m-4614 -5 c0 -3 -4 -8 -10 -11 -5 -3 -10 -1 -10 4 0
6 5 11 10 11 6 0 10 -2 10 -4z m2807 -2 c-3 -3 -12 -4 -19 -1 -8 3 -5 6 6 6
11 1 17 -2 13 -5z m2613 -25 c0 -11 -4 -17 -10 -14 -5 3 -10 13 -10 21 0 8 5
14 10 14 6 0 10 -9 10 -21z m-195 -9 c-3 -5 -10 -10 -16 -10 -5 0 -9 5 -9 10
0 6 7 10 16 10 8 0 12 -4 9 -10z m-3040 -27 c-20 -14 -35 -17 -35 -7 0 12 35
32 44 27 5 -4 1 -12 -9 -20z m-875 2 c0 -9 -9 -15 -21 -15 -17 0 -19 -3 -10
-14 10 -12 8 -13 -9 -9 -22 6 -38 23 -21 23 6 0 11 7 11 15 0 9 9 15 25 15 16
0 25 -6 25 -15z m3337 -7 c-3 -8 -6 -5 -6 6 -1 11 2 17 5 13 3 -3 4 -12 1 -19z
m83 12 c0 -5 -2 -10 -4 -10 -3 0 -8 5 -11 10 -3 6 -1 10 4 10 6 0 11 -4 11
-10z m850 0 c0 -5 -12 -10 -27 -10 -22 0 -25 2 -13 10 20 13 40 13 40 0z
m-6610 -20 c13 -8 13 -10 -2 -10 -9 0 -20 5 -23 10 -8 13 5 13 25 0z m118 -48
c-25 -5 -28 -1 -22 26 l6 21 18 -22 c18 -21 18 -22 -2 -25z m6245 41 c-7 -2
-19 -2 -25 0 -7 3 -2 5 12 5 14 0 19 -2 13 -5z m-3513 -23 c0 -5 -5 -10 -11
-10 -5 0 -7 5 -4 10 3 6 8 10 11 10 2 0 4 -4 4 -10z m355 0 c18 -8 17 -9 -7
-9 -16 -1 -28 4 -28 9 0 12 8 12 35 0z m-75 -4 c0 -3 -4 -8 -10 -11 -5 -3 -10
-1 -10 4 0 6 5 11 10 11 6 0 10 -2 10 -4z m-783 -32 c-3 -3 -12 -4 -19 -1 -8
3 -5 6 6 6 11 1 17 -2 13 -5z m3770 0 c-3 -3 -12 -4 -19 -1 -8 3 -5 6 6 6 11
1 17 -2 13 -5z m-467 -14 c0 -5 -4 -10 -10 -10 -5 0 -10 5 -10 10 0 6 5 10 10
10 6 0 10 -4 10 -10z m858 -19 c3 -8 -1 -12 -9 -9 -7 2 -15 10 -17 17 -3 8 1
12 9 9 7 -2 15 -10 17 -17z m-3691 -17 c-3 -3 -12 -4 -19 -1 -8 3 -5 6 6 6 11
1 17 -2 13 -5z m2947 -35 c-8 -14 -75 -22 -86 -11 -8 8 -7 13 5 18 9 3 17 12
17 20 0 11 7 11 35 -3 19 -9 32 -20 29 -24z m893 35 c-3 -3 -12 -4 -19 -1 -8
3 -5 6 6 6 11 1 17 -2 13 -5z m-2440 -30 c-3 -3 -12 -4 -19 -1 -8 3 -5 6 6 6
11 1 17 -2 13 -5z m-4294 -23 c-4 -4 -20 -12 -35 -19 -23 -9 -28 -9 -28 2 0 8
12 19 28 24 28 10 50 5 35 -7z m2747 5 c0 -3 -4 -8 -10 -11 -5 -3 -10 -1 -10
4 0 6 5 11 10 11 6 0 10 -2 10 -4z m3995 -26 c-10 -11 -23 -20 -28 -20 -6 0
-2 9 8 20 10 11 23 20 28 20 6 0 2 -9 -8 -20z m-170 0 c3 -5 -1 -10 -10 -10
-9 0 -13 5 -10 10 3 6 8 10 10 10 2 0 7 -4 10 -10z m245 -10 c0 -5 -4 -10 -10
-10 -5 0 -10 5 -10 10 0 6 5 10 10 10 6 0 10 -4 10 -10z m-3910 -14 c43 1 48
0 25 -6 -23 -6 -25 -8 -8 -9 12 0 25 -5 28 -11 4 -6 -22 -10 -69 -10 -61 0
-76 3 -76 15 0 8 -7 15 -15 15 -8 0 -15 5 -15 10 0 7 13 8 38 3 20 -4 62 -7
92 -7z m2935 -6 c3 -5 -3 -10 -15 -10 -12 0 -18 5 -15 10 3 6 10 10 15 10 5 0
12 -4 15 -10z m-3145 -31 c0 -5 -7 -9 -15 -9 -15 0 -20 12 -9 23 8 8 24 -1 24
-14z m3070 11 c0 -5 -4 -10 -10 -10 -5 0 -10 5 -10 10 0 6 5 10 10 10 6 0 10
-4 10 -10z m450 0 c0 -5 -7 -10 -16 -10 -8 0 -12 5 -9 10 3 6 10 10 16 10 5 0
9 -4 9 -10z m-3957 -7 c-13 -2 -33 -2 -45 0 -13 2 -3 4 22 4 25 0 35 -2 23 -4z
m511 -8 c3 -9 0 -15 -9 -15 -8 0 -15 7 -15 15 0 8 4 15 9 15 5 0 11 -7 15 -15z
m3940 -1 c9 -3 14 -10 11 -15 -7 -10 -35 0 -35 12 0 11 3 11 24 3z m-6719 -24
c2 -4 -11 -12 -30 -18 -27 -8 -35 -7 -35 2 0 29 49 41 65 16z m6610 10 c-3 -5
-11 -10 -16 -10 -6 0 -7 5 -4 10 3 6 11 10 16 10 6 0 7 -4 4 -10z m-398 -6
c-3 -3 -12 -4 -19 -1 -8 3 -5 6 6 6 11 1 17 -2 13 -5z m-6144 -11 c-7 -2 -19
-2 -25 0 -7 3 -2 5 12 5 14 0 19 -2 13 -5z m6707 -15 c0 -6 -7 -7 -16 -4 -9 3
-18 6 -20 6 -3 0 -3 4 1 10 7 11 35 2 35 -12z m-4141 -22 c8 -9 8 -16 2 -20
-6 -4 -15 3 -21 14 -12 23 2 27 19 6z m-14 -46 c3 -5 1 -10 -4 -10 -6 0 -11 5
-11 10 0 6 2 10 4 10 3 0 8 -4 11 -10z m-2431 -21 c-6 -11 -24 -2 -24 11 0 5
7 7 15 4 8 -4 12 -10 9 -15z m2123 15 c-3 -3 -12 -4 -19 -1 -8 3 -5 6 6 6 11
1 17 -2 13 -5z m4443 -8 c0 -3 -4 -8 -10 -11 -5 -3 -10 -1 -10 4 0 6 5 11 10
11 6 0 10 -2 10 -4z m-3173 -43 c-9 -9 -19 -14 -23 -11 -10 10 6 28 24 28 15
0 15 -1 -1 -17z m-3487 -13 c21 -21 26 -69 10 -100 -23 -43 -116 -40 -134 5
-31 82 64 155 124 95z m6689 -6 c53 -67 -7 -154 -85 -123 -31 13 -36 13 -136
4 -52 -5 -66 -10 -61 -21 7 -19 -12 -18 -32 2 -9 9 -40 18 -75 21 -69 7 -70
22 -2 25 32 1 22 3 -32 7 -44 3 -81 11 -83 16 -2 7 26 8 89 2 51 -5 137 -9
190 -10 88 -2 97 0 92 15 -6 20 19 74 38 81 36 15 77 6 97 -19z m-6579 -3 c0
-6 -4 -13 -10 -16 -5 -3 -10 1 -10 9 0 9 5 16 10 16 6 0 10 -4 10 -9z m848
-17 c35 -15 36 -16 18 -30 -26 -19 -32 -18 -50 8 -29 41 -23 45 32 22z m667 6
c3 -5 1 -10 -4 -10 -6 0 -11 5 -11 10 0 6 2 10 4 10 3 0 8 -4 11 -10z m580
-10 c3 -5 -1 -10 -9 -10 -8 0 -18 5 -21 10 -3 6 1 10 9 10 8 0 18 -4 21 -10z
m-1015 -19 c0 -13 -29 -35 -37 -28 -7 8 15 37 28 37 5 0 9 -4 9 -9z m497 3
c-3 -3 -12 -4 -19 -1 -8 3 -5 6 6 6 11 1 17 -2 13 -5z m-157 -14 c0 -5 -4 -10
-10 -10 -5 0 -10 5 -10 10 0 6 5 10 10 10 6 0 10 -4 10 -10z m720 0 c8 -5 12
-12 9 -15 -8 -8 -39 5 -39 16 0 11 11 11 30 -1z m100 0 c0 -5 -2 -10 -4 -10
-3 0 -8 5 -11 10 -3 6 -1 10 4 10 6 0 11 -4 11 -10z m407 4 c-3 -3 -12 -4 -19
-1 -8 3 -5 6 6 6 11 1 17 -2 13 -5z m263 -14 c0 -5 -4 -10 -10 -10 -5 0 -10 5
-10 10 0 6 5 10 10 10 6 0 10 -4 10 -10z m1970 0 c0 -5 -14 -10 -31 -10 -17 0
-28 4 -24 10 3 6 17 10 31 10 13 0 24 -4 24 -10z m336 -1 c3 -6 15 -9 25 -6
11 3 19 1 19 -4 0 -14 -44 -11 -81 6 l-34 14 32 1 c17 0 35 -5 39 -11z m-2586
-19 c-8 -5 -17 -7 -19 -4 -3 3 1 9 9 14 8 5 17 7 19 4 3 -3 -1 -9 -9 -14z
m1937 14 c-3 -3 -12 -4 -19 -1 -8 3 -5 6 6 6 11 1 17 -2 13 -5z m100 0 c-3 -3
-12 -4 -19 -1 -8 3 -5 6 6 6 11 1 17 -2 13 -5z m1361 -8 c-17 -12 -16 -14 5
-24 17 -8 2 -11 -73 -11 -70 0 -90 2 -77 10 9 6 15 14 12 20 -4 5 4 9 15 9 16
0 20 -4 16 -15 -4 -13 -2 -13 14 -5 10 5 22 15 25 20 3 6 23 10 43 10 33 -1
35 -2 20 -14z m-2948 -6 c0 -5 -2 -10 -4 -10 -3 0 -8 5 -11 10 -3 6 -1 10 4
10 6 0 11 -4 11 -10z m2635 0 c4 -6 -8 -10 -29 -10 -20 0 -36 5 -36 10 0 6 13
10 29 10 17 0 33 -4 36 -10z m-2702 -17 c-7 -2 -19 -2 -25 0 -7 3 -2 5 12 5
14 0 19 -2 13 -5z m-856 -9 c-3 -3 -12 -4 -19 -1 -8 3 -5 6 6 6 11 1 17 -2 13
-5z m120 -20 c-3 -3 -12 -4 -19 -1 -8 3 -5 6 6 6 11 1 17 -2 13 -5z m593 2 c0
-3 -4 -8 -10 -11 -5 -3 -10 -1 -10 4 0 6 5 11 10 11 6 0 10 -2 10 -4z m-3080
-16 c0 -5 -7 -10 -16 -10 -8 0 -12 5 -9 10 3 6 10 10 16 10 5 0 9 -4 9 -10z
m1964 -6 c23 -9 20 -23 -4 -17 -11 3 -20 9 -20 14 0 11 3 11 24 3z m1326 -14
c0 -11 -59 -23 -91 -18 l-24 5 25 11 c31 13 90 15 90 2z m980 0 c0 -5 -6 -10
-14 -10 -8 0 -18 5 -21 10 -3 6 3 10 14 10 12 0 21 -4 21 -10z m-3823 -6 c-3
-3 -12 -4 -19 -1 -8 3 -5 6 6 6 11 1 17 -2 13 -5z m3676 -1 c-7 -2 -21 -2 -30
0 -10 3 -4 5 12 5 17 0 24 -2 18 -5z m-1113 -13 c12 -8 9 -10 -12 -10 -15 0
-30 5 -33 10 -8 13 25 13 45 0z m3525 0 c3 -5 2 -10 -4 -10 -5 0 -13 5 -16 10
-3 6 -2 10 4 10 5 0 13 -4 16 -10z"/>
<path d="M1156 4234 c-4 -10 -13 -14 -26 -11 -27 7 -37 -13 -16 -29 12 -8 16
-19 11 -33 -5 -15 -2 -21 10 -21 8 0 18 7 21 15 4 10 14 13 30 9 17 -4 24 -2
24 9 0 8 -7 17 -15 21 -8 3 -14 15 -12 27 3 26 -18 37 -27 13z"/>
<path d="M7813 4242 c-8 -5 -9 -13 -3 -22 6 -10 4 -20 -6 -32 -21 -22 -9 -42
16 -28 14 8 21 6 28 -6 12 -22 35 -8 27 16 -4 12 0 22 11 28 22 13 8 35 -18
26 -12 -3 -24 0 -31 10 -7 9 -17 12 -24 8z"/>
<path d="M1548 3985 c-5 -5 -8 -68 -8 -140 0 -146 5 -159 56 -150 32 6 178 13
292 14 59 1 76 5 93 22 17 17 19 23 8 30 -10 6 -11 9 -1 9 9 0 12 24 12 85 0
110 -12 125 -102 125 -35 0 -126 3 -203 6 -77 4 -143 3 -147 -1z m47 -85 c3
-6 -4 -10 -17 -10 -18 0 -20 2 -8 10 19 12 18 12 25 0z m172 -36 c-3 -3 -12
-4 -19 -1 -8 3 -5 6 6 6 11 1 17 -2 13 -5z m156 -51 c-13 -2 -33 -2 -45 0 -13
2 -3 4 22 4 25 0 35 -2 23 -4z"/>
<path d="M1510 3590 c0 -5 5 -10 11 -10 5 0 7 5 4 10 -3 6 -8 10 -11 10 -2 0
-4 -4 -4 -10z"/>
<path d="M1566 3581 c-4 -5 -2 -12 3 -15 5 -4 12 -2 15 3 4 5 2 12 -3 15 -5 4
-12 2 -15 -3z"/>
<path d="M7045 4090 c-13 -14 -14 -20 -5 -20 7 0 18 -7 25 -16 10 -14 15 -15
36 -3 l24 14 -22 3 c-13 2 -23 10 -23 17 0 23 -16 26 -35 5z"/>
<path d="M7160 4080 c0 -5 5 -10 11 -10 5 0 7 5 4 10 -3 6 -8 10 -11 10 -2 0
-4 -4 -4 -10z"/>
<path d="M7078 4013 c7 -3 16 -2 19 1 4 3 -2 6 -13 5 -11 0 -14 -3 -6 -6z"/>
<path d="M7082 3953 c5 -25 28 -28 28 -4 0 12 -6 21 -16 21 -9 0 -14 -7 -12
-17z"/>
<path d="M7041 3944 c0 -11 3 -14 6 -6 3 7 2 16 -1 19 -3 4 -6 -2 -5 -13z"/>
<path d="M7120 3910 c0 -5 5 -10 11 -10 5 0 7 5 4 10 -3 6 -8 10 -11 10 -2 0
-4 -4 -4 -10z"/>
<path d="M7030 3860 c0 -5 11 -10 24 -10 13 0 31 -3 40 -6 11 -4 16 -1 16 10
0 12 -10 16 -40 16 -22 0 -40 -4 -40 -10z"/>
<path d="M7035 3680 c-3 -5 -1 -10 4 -10 6 0 11 5 11 10 0 6 -2 10 -4 10 -3 0
-8 -4 -11 -10z"/>
<path d="M7310 3665 c-19 -23 -7 -39 13 -17 10 11 14 23 9 26 -5 3 -15 -1 -22
-9z"/>
<path d="M7110 3638 c1 -31 1 -32 15 -13 17 21 15 37 -3 43 -8 2 -12 -8 -12
-30z"/>
<path d="M7180 3663 c0 -5 7 -17 15 -27 14 -19 15 -19 15 7 0 17 -5 27 -15 27
-8 0 -15 -3 -15 -7z"/>
<path d="M7311 3617 c-7 -9 -10 -25 -6 -34 6 -17 7 -17 16 0 6 10 9 25 7 34
-3 15 -4 15 -17 0z"/>
<path d="M7246 3601 c-4 -7 -5 -15 -2 -18 9 -9 19 4 14 18 -4 11 -6 11 -12 0z"/>
<path d="M7100 3579 c0 -5 5 -7 10 -4 6 3 10 8 10 11 0 2 -4 4 -10 4 -5 0 -10
-5 -10 -11z"/>
<path d="M7590 3580 c0 -5 5 -10 10 -10 6 0 10 5 10 10 0 6 -4 10 -10 10 -5 0
-10 -4 -10 -10z"/>
<path d="M2340 4076 c0 -46 4 -52 27 -38 8 5 9 13 3 22 -16 24 -12 30 19 30
17 0 33 5 36 10 3 6 0 10 -8 10 -8 0 -29 3 -46 6 l-31 7 0 -47z"/>
<path d="M3330 4080 c0 -5 5 -10 11 -10 5 0 7 5 4 10 -3 6 -8 10 -11 10 -2 0
-4 -4 -4 -10z"/>
<path d="M3855 4070 c-3 -5 1 -10 10 -10 9 0 13 5 10 10 -3 6 -8 10 -10 10 -2
0 -7 -4 -10 -10z"/>
<path d="M2385 4010 c-3 -5 -1 -10 4 -10 6 0 11 5 11 10 0 6 -2 10 -4 10 -3 0
-8 -4 -11 -10z"/>
<path d="M2470 3920 l0 -70 135 0 c108 0 133 3 129 13 -5 14 22 44 32 34 3 -3
1 -15 -6 -26 -10 -20 -8 -21 38 -21 62 0 74 14 70 77 -3 47 -3 48 -43 55 -22
3 -111 7 -197 7 l-158 1 0 -70z m271 33 c-8 -15 -10 -15 -11 -2 0 17 10 32 18
25 2 -3 -1 -13 -7 -23z"/>
<path d="M2835 3810 c3 -5 10 -10 16 -10 5 0 9 5 9 10 0 6 -7 10 -16 10 -8 0
-12 -4 -9 -10z"/>
<path d="M2980 3625 c0 -8 5 -15 10 -15 6 0 10 7 10 15 0 8 -4 15 -10 15 -5 0
-10 -7 -10 -15z"/>
<path d="M3476 3611 c-4 -5 -2 -12 3 -15 5 -4 12 -2 15 3 4 5 2 12 -3 15 -5 4
-12 2 -15 -3z"/>
<path d="M4605 4100 c3 -5 10 -10 16 -10 5 0 9 5 9 10 0 6 -7 10 -16 10 -8 0
-12 -4 -9 -10z"/>
<path d="M5230 4089 c0 -5 5 -7 10 -4 6 3 10 8 10 11 0 2 -4 4 -10 4 -5 0 -10
-5 -10 -11z"/>
<path d="M4168 4083 c7 -3 16 -2 19 1 4 3 -2 6 -13 5 -11 0 -14 -3 -6 -6z"/>
<path d="M4575 4060 c-3 -5 -1 -10 4 -10 6 0 11 5 11 10 0 6 -2 10 -4 10 -3 0
-8 -4 -11 -10z"/>
<path d="M5290 4060 c0 -5 5 -10 11 -10 5 0 7 5 4 10 -3 6 -8 10 -11 10 -2 0
-4 -4 -4 -10z"/>
<path d="M4600 4029 c0 -5 5 -7 10 -4 6 3 10 8 10 11 0 2 -4 4 -10 4 -5 0 -10
-5 -10 -11z"/>
<path d="M4210 4020 c0 -5 5 -10 10 -10 6 0 10 5 10 10 0 6 -4 10 -10 10 -5 0
-10 -4 -10 -10z"/>
<path d="M5270 3995 c0 -8 5 -15 10 -15 6 0 10 7 10 15 0 8 -4 15 -10 15 -5 0
-10 -7 -10 -15z"/>
<path d="M4180 3986 c0 -9 5 -16 10 -16 6 0 10 4 10 9 0 6 -4 13 -10 16 -5 3
-10 -1 -10 -9z"/>
<path d="M4555 3970 c3 -5 8 -10 11 -10 2 0 4 5 4 10 0 6 -5 10 -11 10 -5 0
-7 -4 -4 -10z"/>
<path d="M4250 3934 c0 -8 5 -12 10 -9 6 3 10 10 10 16 0 5 -4 9 -10 9 -5 0
-10 -7 -10 -16z"/>
<path d="M4188 3863 c7 -3 16 -2 19 1 4 3 -2 6 -13 5 -11 0 -14 -3 -6 -6z"/>
<path d="M4480 3800 c0 -5 5 -10 11 -10 5 0 7 5 4 10 -3 6 -8 10 -11 10 -2 0
-4 -4 -4 -10z"/>
<path d="M5080 3770 c0 -5 5 -10 10 -10 6 0 10 5 10 10 0 6 -4 10 -10 10 -5 0
-10 -4 -10 -10z"/>
<path d="M4846 3711 c-4 -7 -5 -15 -2 -18 9 -9 19 4 14 18 -4 11 -6 11 -12 0z"/>
<path d="M4910 3631 c0 -6 5 -13 10 -16 6 -3 10 1 10 9 0 9 -4 16 -10 16 -5 0
-10 -4 -10 -9z"/>
<path d="M5716 3963 c-13 -21 -42 -69 -64 -108 l-40 -70 69 -3 c38 -2 101 -2
139 0 l70 3 -61 108 c-33 59 -67 107 -75 107 -7 0 -25 -17 -38 -37z"/>
<path d="M5928 3923 c6 -2 18 -2 25 0 6 3 1 5 -13 5 -14 0 -19 -2 -12 -5z"/>
<path d="M5920 3890 c0 -5 7 -10 15 -10 8 0 15 5 15 10 0 6 -7 10 -15 10 -8 0
-15 -4 -15 -10z"/>
<path d="M5590 3810 c0 -5 4 -10 9 -10 6 0 13 5 16 10 3 6 -1 10 -9 10 -9 0
-16 -4 -16 -10z"/>
<path d="M6020 3750 c0 -5 5 -10 10 -10 6 0 10 5 10 10 0 6 -4 10 -10 10 -5 0
-10 -4 -10 -10z"/>
<path d="M5690 3700 c0 -5 5 -10 11 -10 5 0 7 5 4 10 -3 6 -8 10 -11 10 -2 0
-4 -4 -4 -10z"/>
<path d="M5350 3630 c0 -5 11 -10 25 -10 14 0 25 5 25 10 0 6 -11 10 -25 10
-14 0 -25 -4 -25 -10z"/>
<path d="M6035 3630 c3 -5 10 -10 16 -10 5 0 9 5 9 10 0 6 -7 10 -16 10 -8 0
-12 -4 -9 -10z"/>
<path d="M6355 4030 c4 -6 11 -8 16 -5 14 9 11 15 -7 15 -8 0 -12 -5 -9 -10z"/>
<path d="M6395 4011 c-3 -5 -1 -12 5 -16 5 -3 10 1 10 9 0 18 -6 21 -15 7z"/>
<path d="M6331 3914 c0 -11 3 -14 6 -6 3 7 2 16 -1 19 -3 4 -6 -2 -5 -13z"/>
<path d="M6445 3870 c3 -5 8 -10 11 -10 2 0 4 5 4 10 0 6 -5 10 -11 10 -5 0
-7 -4 -4 -10z"/>
<path d="M6430 3779 c0 -5 5 -7 10 -4 6 3 10 8 10 11 0 2 -4 4 -10 4 -5 0 -10
-5 -10 -11z"/>
<path d="M6430 3709 c0 -5 5 -7 10 -4 6 3 10 8 10 11 0 2 -4 4 -10 4 -5 0 -10
-5 -10 -11z"/>
<path d="M6400 3660 c0 -5 4 -10 9 -10 6 0 13 5 16 10 3 6 -1 10 -9 10 -9 0
-16 -4 -16 -10z"/>
<path d="M6380 3589 c0 -5 5 -7 10 -4 6 3 10 8 10 11 0 2 -4 4 -10 4 -5 0 -10
-5 -10 -11z"/>
<path d="M1133 3549 c4 -15 0 -23 -14 -26 -28 -8 -24 -33 6 -33 16 0 25 -6 25
-15 0 -8 7 -15 15 -15 8 0 15 9 15 20 0 11 7 23 15 26 24 10 19 37 -6 31 -15
-4 -23 0 -26 14 -3 10 -12 19 -20 19 -11 0 -14 -7 -10 -21z"/>
<path d="M7800 3546 c0 -8 5 -18 11 -21 7 -5 5 -13 -6 -25 -20 -22 -2 -38 22
-19 13 11 17 10 27 -3 8 -11 17 -14 26 -8 11 7 11 11 1 24 -11 13 -11 19 -1
31 16 20 3 40 -16 24 -11 -9 -18 -9 -26 -1 -17 17 -38 15 -38 -2z"/>
<path d="M620 3860 c-13 -9 -13 -10 0 -10 8 0 22 5 30 10 13 9 13 10 0 10 -8
0 -22 -5 -30 -10z"/>
<path d="M780 3491 c-32 -6 -33 -8 -12 -15 12 -4 22 -10 22 -14 0 -4 21 -5 46
-3 26 2 41 7 34 11 -6 4 -11 11 -11 16 2 11 -34 14 -79 5z"/>
<path d="M903 3493 c9 -2 25 -2 35 0 9 3 1 5 -18 5 -19 0 -27 -2 -17 -5z"/>
<path d="M668 3483 c7 -3 16 -2 19 1 4 3 -2 6 -13 5 -11 0 -14 -3 -6 -6z"/>
<path d="M2300 3285 c-8 -9 -8 -15 -2 -15 12 0 26 19 19 26 -2 2 -10 -2 -17
-11z"/>
<path d="M4320 3289 c0 -5 5 -7 10 -4 6 3 10 8 10 11 0 2 -4 4 -10 4 -5 0 -10
-5 -10 -11z"/>
<path d="M7487 3293 c-4 -3 -7 -13 -7 -22 1 -13 3 -13 11 2 11 19 8 33 -4 20z"/>
<path d="M1385 3270 c-11 -5 -47 -9 -80 -10 -51 -1 -56 -3 -31 -10 35 -11 183
9 164 22 -16 9 -27 9 -53 -2z"/>
<path d="M6560 3269 c-14 -6 -52 -8 -85 -5 -46 5 -56 4 -42 -5 20 -12 143 -15
178 -4 17 6 19 9 8 16 -17 11 -27 10 -59 -2z"/>
<path d="M4283 3258 c6 -17 -13 -18 -303 -18 -223 0 -310 -3 -310 -11 0 -7 -4
-8 -12 -2 -14 10 -428 5 -428 -6 0 -10 200 -134 272 -168 37 -17 68 -36 68
-41 0 -5 6 -9 13 -9 12 0 411 -232 522 -303 65 -42 131 -69 174 -71 l26 -1
-28 -7 c-26 -5 -18 -11 87 -68 64 -35 124 -63 133 -63 10 0 56 23 103 51 47
28 126 74 175 102 153 85 443 268 449 282 2 7 -4 21 -15 31 -25 22 -24 34 2
34 12 0 17 -4 14 -11 -4 -5 0 -18 8 -27 8 -9 17 -26 20 -37 4 -19 5 -19 6 1 1
14 14 27 42 39 50 23 80 62 58 76 -8 5 -20 9 -26 9 -17 0 -16 10 2 33 10 15
18 17 32 8 17 -10 17 -10 1 -11 -20 0 -24 -15 -7 -26 6 -3 16 0 21 7 7 10 8 9
4 -6 -8 -29 6 -45 32 -38 18 4 20 8 11 19 -6 8 -10 14 -8 15 38 7 49 7 54 -1
3 -5 20 6 37 26 29 33 111 82 168 99 14 4 39 18 55 31 17 13 41 27 55 32 37
14 -600 23 -1067 16 -402 -7 -416 -7 -431 12 -12 16 -14 16 -9 2z m-13 -58
c-24 -15 -37 -11 -16 5 11 8 22 12 25 9 3 -3 -1 -9 -9 -14z m-150 -20 c0 -5
-4 -10 -10 -10 -5 0 -10 5 -10 10 0 6 5 10 10 10 6 0 10 -4 10 -10z m940 -85
c0 -5 -14 5 -30 23 -17 18 -30 38 -30 45 1 6 14 -4 30 -23 17 -19 30 -39 30
-45z m275 55 c-3 -5 -10 -10 -16 -10 -5 0 -9 5 -9 10 0 6 7 10 16 10 8 0 12
-4 9 -10z m-1075 -15 c0 -9 -6 -12 -15 -9 -8 4 -12 10 -9 15 8 14 24 10 24 -6z
m690 -35 c10 -19 8 -20 -41 -20 -51 0 -52 0 -34 20 10 11 28 20 41 20 13 0 28
-9 34 -20z m257 -22 c-3 -7 -5 -2 -5 12 0 14 2 19 5 13 2 -7 2 -19 0 -25z
m-62 12 c3 -5 2 -10 -4 -10 -5 0 -13 5 -16 10 -3 6 -2 10 4 10 5 0 13 -4 16
-10z m-50 -10 c3 -5 -1 -10 -9 -10 -9 0 -16 5 -16 10 0 6 4 10 9 10 6 0 13 -4
16 -10z m340 0 c3 -5 -1 -10 -9 -10 -9 0 -16 5 -16 10 0 6 4 10 9 10 6 0 13
-4 16 -10z m-165 -25 c-13 -14 -28 -25 -33 -25 -6 0 0 11 13 25 13 14 28 25
33 25 6 0 0 -11 -13 -25z m-753 9 c-3 -3 -12 -4 -19 -1 -8 3 -5 6 6 6 11 1 17
-2 13 -5z m83 -14 c0 -5 -5 -10 -11 -10 -5 0 -7 5 -4 10 3 6 8 10 11 10 2 0 4
-4 4 -10z m596 -37 c-11 -11 -17 4 -9 23 7 18 8 18 11 1 2 -10 1 -21 -2 -24z
m-311 18 c3 -5 1 -12 -4 -16 -14 -8 -91 6 -91 16 0 12 87 11 95 0z m100 -1
c13 -6 15 -9 5 -9 -8 0 -22 4 -30 9 -18 12 -2 12 25 0z m312 4 c-3 -3 -12 -4
-19 -1 -8 3 -5 6 6 6 11 1 17 -2 13 -5z m-1287 -25 c0 -5 -4 -9 -10 -9 -5 0
-10 7 -10 16 0 8 5 12 10 9 6 -3 10 -10 10 -16z m405 -9 c3 -5 -1 -10 -9 -10
-9 0 -16 5 -16 10 0 6 4 10 9 10 6 0 13 -4 16 -10z m492 -65 c-7 -14 -15 -25
-19 -25 -4 0 -2 11 4 25 6 14 15 25 19 25 4 0 2 -11 -4 -25z m-660 -11 c-3 -3
-12 -4 -19 -1 -8 3 -5 6 6 6 11 1 17 -2 13 -5z m843 -14 c0 -5 -4 -10 -10 -10
-5 0 -10 5 -10 10 0 6 5 10 10 10 6 0 10 -4 10 -10z m-860 -14 c0 -3 -4 -8
-10 -11 -5 -3 -10 -1 -10 4 0 6 5 11 10 11 6 0 10 -2 10 -4z m650 -16 c0 -5
-4 -10 -10 -10 -5 0 -10 5 -10 10 0 6 5 10 10 10 6 0 10 -4 10 -10z"/>
<path d="M2510 3235 c0 -8 13 -21 30 -30 35 -18 40 -19 40 -2 0 9 47 13 192
15 106 2 196 6 200 9 5 2 6 9 3 14 -8 13 -395 12 -395 -1 0 -5 -5 -10 -11 -10
-5 0 -7 5 -4 10 4 6 -7 10 -24 10 -21 0 -31 -5 -31 -15z"/>
<path d="M1080 3230 c0 -5 7 -10 15 -10 8 0 15 5 15 10 0 6 -7 10 -15 10 -8 0
-15 -4 -15 -10z"/>
<path d="M3035 3224 c-27 -8 -132 -18 -232 -22 -100 -4 -184 -10 -186 -12 -2
-3 -7 -18 -11 -35 -5 -26 -5 -28 7 -13 12 15 23 11 121 -45 59 -34 112 -70
118 -81 6 -10 13 -50 17 -90 l6 -71 135 -71 c74 -39 149 -85 167 -102 17 -17
44 -34 60 -38 28 -7 75 -33 206 -113 89 -55 113 -64 138 -51 19 11 28 -3 10
-15 -6 -3 -9 -14 -8 -25 1 -10 5 -16 9 -14 9 6 292 -139 319 -162 23 -20 57
-17 117 11 71 33 89 32 148 -10 27 -19 53 -35 58 -35 4 0 39 -20 76 -45 37
-25 84 -52 104 -60 l37 -15 -3 142 -3 143 -79 42 c-43 24 -86 49 -95 57 -9 7
-52 32 -96 54 -78 39 -365 208 -375 221 -3 3 -10 7 -16 8 -7 1 -103 56 -215
121 -267 156 -270 158 -263 165 3 3 -10 9 -30 12 -34 7 -164 81 -216 124 l-25
20 79 1 c44 0 77 2 75 4 -13 11 -111 11 -154 0z m-179 -139 c-3 -8 2 -19 12
-24 14 -8 14 -10 2 -10 -8 0 -23 6 -33 13 -18 14 -18 15 0 25 24 14 26 14 19
-4z m81 -197 c-3 -8 -6 -5 -6 6 -1 11 2 17 5 13 3 -3 4 -12 1 -19z m568 -88
c-3 -5 -1 -10 6 -10 48 0 66 -86 27 -127 -57 -61 -153 11 -122 92 4 9 25 25
48 35 50 23 49 22 41 10z m858 -497 c-7 -2 -19 -2 -25 0 -7 3 -2 5 12 5 14 0
19 -2 13 -5z"/>
<path d="M3480 2754 c0 -11 -6 -15 -20 -11 -26 7 -38 -13 -17 -28 10 -7 17
-22 17 -34 0 -12 6 -21 15 -21 8 0 15 7 15 15 0 9 9 15 25 15 28 0 34 24 9 34
-10 4 -13 13 -9 26 5 16 2 20 -14 20 -13 0 -21 -6 -21 -16z"/>
<path d="M5939 3203 c-35 -19 -77 -46 -92 -59 -16 -13 -39 -24 -52 -24 -13 0
-36 -11 -51 -25 -14 -13 -30 -22 -35 -19 -5 3 -9 0 -9 -6 0 -6 -7 -13 -16 -17
-9 -3 -27 -17 -40 -29 -26 -27 -54 -31 -54 -9 0 8 -4 15 -10 15 -5 0 -10 -10
-10 -22 0 -19 -19 -33 -98 -76 -53 -29 -128 -71 -167 -94 -38 -22 -100 -58
-137 -80 -37 -21 -109 -65 -159 -98 -50 -33 -110 -65 -132 -72 -23 -7 -62 -27
-87 -44 -25 -17 -85 -53 -135 -79 -134 -72 -125 -56 -125 -217 0 -109 3 -138
13 -138 8 0 54 25 103 56 49 31 106 65 127 75 20 11 37 24 37 29 0 6 8 10 19
10 10 0 24 7 31 15 11 13 10 14 -3 10 -8 -4 -18 -2 -21 4 -4 6 4 13 17 16 16
4 46 -6 98 -34 41 -22 85 -41 98 -41 13 0 60 24 105 54 44 29 133 82 196 116
63 35 219 124 345 198 127 74 241 139 255 144 57 21 160 91 166 112 3 12 4 51
2 86 l-3 65 -60 5 -60 5 39 16 c30 12 46 14 67 6 20 -8 35 -8 54 1 14 7 24 8
21 3 -3 -5 1 -11 9 -14 8 -4 12 -1 9 6 -5 13 152 107 179 107 28 0 19 18 -10
23 -16 2 -8 3 17 1 37 -3 50 0 73 21 15 14 27 28 27 31 0 2 -107 4 -238 4
l-238 -1 -65 -36z m244 -20 c-7 -2 -21 -2 -30 0 -10 3 -4 5 12 5 17 0 24 -2
18 -5z m-315 -130 c-10 -2 -28 -2 -40 0 -13 2 -5 4 17 4 22 1 32 -1 23 -4z
m-188 -63 c0 -5 -4 -10 -10 -10 -5 0 -10 5 -10 10 0 6 5 10 10 10 6 0 10 -4
10 -10z m-135 -223 c22 -31 18 -77 -7 -104 -63 -67 -166 28 -113 104 26 36 95
36 120 0z m-295 -127 c0 -5 -5 -10 -11 -10 -5 0 -7 5 -4 10 3 6 8 10 11 10 2
0 4 -4 4 -10z m-329 -73 c-8 -8 -11 -7 -11 4 0 20 13 34 18 19 3 -7 -1 -17 -7
-23z m-101 -37 c0 -5 -5 -10 -11 -10 -5 0 -7 5 -4 10 3 6 8 10 11 10 2 0 4 -4
4 -10z m490 -54 c0 -2 -7 -7 -16 -10 -8 -3 -12 -2 -9 4 6 10 25 14 25 6z
m-315 -146 c3 -6 -1 -7 -9 -4 -18 7 -21 14 -7 14 6 0 13 -4 16 -10z"/>
<path d="M5465 2750 c5 -16 2 -20 -14 -20 -15 0 -21 -6 -21 -21 0 -16 4 -19
21 -14 15 5 22 2 26 -14 8 -30 33 -27 33 4 0 16 6 25 15 25 8 0 15 7 15 15 0
8 -9 15 -20 15 -11 0 -20 7 -20 15 0 8 -9 15 -21 15 -16 0 -19 -4 -14 -20z"/>
<path d="M6785 3230 c-3 -5 -1 -10 4 -10 6 0 11 5 11 10 0 6 -2 10 -4 10 -3 0
-8 -4 -11 -10z"/>
<path d="M7890 3230 c0 -5 9 -14 20 -20 11 -6 20 -7 20 -3 0 5 -9 14 -20 21
-11 7 -20 8 -20 2z"/>
<path d="M808 3223 c6 -2 18 -2 25 0 6 3 1 5 -13 5 -14 0 -19 -2 -12 -5z"/>
<path d="M7751 3214 c0 -11 3 -14 6 -6 3 7 2 16 -1 19 -3 4 -6 -2 -5 -13z"/>
<path d="M1086 3164 c-30 -54 -30 -54 -12 -54 7 0 23 23 34 50 26 63 12 65
-22 4z"/>
<path d="M1995 3190 c-4 -6 9 -10 32 -9 30 0 34 2 18 9 -27 12 -43 12 -50 0z"/>
<path d="M6761 3186 c-8 -10 -3 -11 19 -8 35 5 37 8 10 15 -10 3 -24 -1 -29
-7z"/>
<path d="M7330 3174 c0 -5 7 -19 15 -30 8 -10 15 -14 15 -8 0 5 -7 19 -15 30
-8 10 -15 14 -15 8z"/>
<path d="M7378 3163 c7 -3 16 -2 19 1 4 3 -2 6 -13 5 -11 0 -14 -3 -6 -6z"/>
<path d="M7786 3145 c-3 -8 -1 -15 3 -15 5 0 11 7 15 15 3 8 1 15 -3 15 -5 0
-11 -7 -15 -15z"/>
<path d="M6540 3135 c-13 -16 -3 -20 24 -9 9 3 13 10 10 15 -8 13 -20 11 -34
-6z"/>
<path d="M3278 3133 c7 -3 16 -2 19 1 4 3 -2 6 -13 5 -11 0 -14 -3 -6 -6z"/>
<path d="M7975 3130 c-3 -5 -2 -10 4 -10 5 0 13 5 16 10 3 6 2 10 -4 10 -5 0
-13 -4 -16 -10z"/>
<path d="M7255 3110 c10 -11 20 -20 22 -20 2 0 -1 9 -7 20 -6 11 -16 20 -22
20 -6 0 -3 -9 7 -20z"/>
<path d="M7450 3100 c0 -18 3 -19 20 -10 11 6 20 15 20 20 0 6 -9 10 -20 10
-13 0 -20 -7 -20 -20z"/>
<path d="M7135 3090 c3 -5 8 -10 11 -10 2 0 4 5 4 10 0 6 -5 10 -11 10 -5 0
-7 -4 -4 -10z"/>
<path d="M7290 3091 c0 -17 12 -41 20 -41 10 0 1 38 -11 46 -5 3 -9 1 -9 -5z"/>
<path d="M5565 3081 c-3 -5 -1 -12 4 -15 5 -3 11 1 15 9 6 16 -9 21 -19 6z"/>
<path d="M7505 3071 c-6 -11 9 -23 19 -14 9 9 7 23 -3 23 -6 0 -12 -4 -16 -9z"/>
<path d="M2403 3063 c9 -2 23 -2 30 0 6 3 -1 5 -18 5 -16 0 -22 -2 -12 -5z"/>
<path d="M2498 3063 c7 -3 16 -2 19 1 4 3 -2 6 -13 5 -11 0 -14 -3 -6 -6z"/>
<path d="M7480 3033 c0 -5 9 -18 20 -28 11 -10 20 -14 20 -8 0 5 -9 18 -20 28
-11 10 -20 14 -20 8z"/>
<path d="M7332 3005 c0 -16 2 -22 5 -12 2 9 2 23 0 30 -3 6 -5 -1 -5 -18z"/>
<path d="M2610 2996 c0 -9 5 -16 10 -16 6 0 10 4 10 9 0 6 -4 13 -10 16 -5 3
-10 -1 -10 -9z"/>
<path d="M5405 2950 c3 -5 10 -10 16 -10 5 0 9 5 9 10 0 6 -7 10 -16 10 -8 0
-12 -4 -9 -10z"/>
<path d="M2384 2935 c21 -16 32 -13 21 4 -3 6 -14 11 -23 11 -15 -1 -15 -2 2
-15z"/>
<path d="M2567 2933 c-12 -11 -8 -23 8 -23 8 0 15 7 15 15 0 16 -12 20 -23 8z"/>
<path d="M6185 2930 c-3 -5 -1 -10 4 -10 6 0 11 5 11 10 0 6 -2 10 -4 10 -3 0
-8 -4 -11 -10z"/>
<path d="M6795 2910 c3 -5 11 -10 16 -10 6 0 7 5 4 10 -3 6 -11 10 -16 10 -6
0 -7 -4 -4 -10z"/>
<path d="M2400 2874 c0 -8 5 -12 10 -9 6 4 8 11 5 16 -9 14 -15 11 -15 -7z"/>
<path d="M2700 2754 c0 -9 5 -14 12 -12 18 6 21 28 4 28 -9 0 -16 -7 -16 -16z"/>
<path d="M2626 2728 c-9 -12 -16 -29 -16 -37 0 -21 31 -40 65 -40 l30 -1 -24
19 c-21 16 -23 22 -13 50 10 28 9 31 -8 31 -10 0 -26 -10 -34 -22z"/>
<path d="M2718 2678 c9 -9 15 -9 24 0 9 9 7 12 -12 12 -19 0 -21 -3 -12 -12z"/>
<path d="M4850 2640 c0 -5 7 -7 15 -4 8 4 15 8 15 10 0 2 -7 4 -15 4 -8 0 -15
-4 -15 -10z"/>
<path d="M4915 2641 c-3 -5 -1 -12 4 -15 5 -3 11 1 15 9 6 16 -9 21 -19 6z"/>
<path d="M3130 2600 c0 -5 4 -10 9 -10 6 0 13 5 16 10 3 6 -1 10 -9 10 -9 0
-16 -4 -16 -10z"/>
<path d="M3152 2567 c-17 -20 -12 -40 6 -28 8 5 12 16 10 26 -3 17 -4 17 -16
2z"/>
<path d="M2885 2559 c-11 -17 1 -21 15 -4 8 9 8 15 2 15 -6 0 -14 -5 -17 -11z"/>
<path d="M3121 2504 c0 -11 3 -14 6 -6 3 7 2 16 -1 19 -3 4 -6 -2 -5 -13z"/>
<path d="M3268 2253 c7 -3 16 -2 19 1 4 3 -2 6 -13 5 -11 0 -14 -3 -6 -6z"/>
<path d="M3360 2246 c0 -22 12 -25 50 -16 l35 8 -30 1 c-23 1 -27 3 -15 11 12
8 9 10 -12 10 -18 0 -28 -5 -28 -14z"/>
<path d="M5028 1973 c12 -2 22 -8 22 -13 0 -5 -10 -11 -22 -13 -14 -3 -9 -5
15 -6 20 0 37 3 37 7 0 17 -25 32 -49 31 -24 -2 -24 -2 -3 -6z"/>
<path d="M5118 1973 c6 -2 18 -2 25 0 6 3 1 5 -13 5 -14 0 -19 -2 -12 -5z"/>
</g>
</svg>
